<svg xmlns="http://www.w3.org/2000/svg" width="34" height="34" fill="none" viewBox="0 0 34 34">
  <circle cx="17" cy="17" r="17" fill="#EFAA42"/>
  <path fill="#fff" d="M13.91 23.706v1.802c0 .2.162.36.361.36h1.441a.36.36 0 0 0 .36-.36v-1.802h.722v1.802c0 .2.16.36.36.36h1.441a.36.36 0 0 0 .36-.36v-1.802h.122c2.87 0 4.923-1.488 4.923-4.064 0-2.165-1.451-3.348-3.15-3.517v-.127c1.397-.348 2.425-1.403 2.425-3.156 0-2.208-1.657-3.549-4.187-3.549h-.133V7.492a.36.36 0 0 0-.36-.36h-1.441a.36.36 0 0 0-.36.36v1.801h-.826V7.492a.36.36 0 0 0-.36-.36H14.27a.36.36 0 0 0-.36.36v1.801l-2.88.016a.36.36 0 0 0-.36.36v1.426c0 .197.158.36.357.36l1.088-.007a1.08 1.08 0 0 1 1.074 1.081v7.935a1.081 1.081 0 0 1-1.08 1.08l-1.079.016a.36.36 0 0 0-.36.36v1.442c0 .199.161.36.36.36l2.88-.016Zm2.058-12.27h2.477c1.306 0 2.073.718 2.073 1.892 0 1.255-.829 1.963-2.706 1.963h-1.844v-3.854Zm0 5.84h2.652c1.638 0 2.53.835 2.53 2.196 0 1.373-.902 2.09-3.11 2.09h-2.072v-4.287Z"/>
</svg>
