<svg xmlns="http://www.w3.org/2000/svg" width="29" height="29" fill="none" viewBox="0 0 29 29">
  <path fill="#828282" d="M19.714 5.571A1.571 1.571 0 0 1 21.286 4h3.143A1.571 1.571 0 0 1 26 5.571V24.43h.786a.786.786 0 1 1 0 1.571H3.214a.786.786 0 0 1 0-1.571H4v-4.715a1.571 1.571 0 0 1 1.571-1.571h3.143a1.571 1.571 0 0 1 1.572 1.571v4.715h1.571v-11a1.571 1.571 0 0 1 1.572-1.572h3.142a1.571 1.571 0 0 1 1.572 1.572v11h1.571V5.57Zm1.572 18.858h3.143V5.57h-3.143v18.86Zm-4.715 0v-11H13.43v11h3.142Zm-7.857 0v-4.715H5.571v4.715h3.143Z"/>
</svg>
