<svg xmlns="http://www.w3.org/2000/svg" width="24" height="24" fill="none" viewBox="0 0 24 24">
  <path fill="#8A92B2" d="M12.035.13v.012c.012.059.012.13.012.2v8.525c-.012.047-.047.059-.083.083-.248.118-.484.224-.733.33-.342.154-.697.32-1.04.474l-1.241.567a85.1 85.1 0 0 0-1.017.461c-.402.19-.816.367-1.218.556-.343.154-.686.319-1.04.473-.284.13-.568.248-.84.378a.168.168 0 0 1-.07.024c-.012 0-.012 0-.024-.012l.319-.532c.615-1.017 1.218-2.022 1.832-3.039.65-1.087 1.313-2.175 1.963-3.263.603-1.005 1.218-2.01 1.82-3.014.438-.733.887-1.466 1.325-2.2.012-.023.024-.035.024-.059h.011c-.011.012 0 .024 0 .036Z"/>
  <path fill="#454A75" d="m19.295 12.2.011.013-1.738 1.028-5.462 3.228a.259.259 0 0 0-.059.035c-.035 0-.035-.035-.035-.047V9.044c0-.035 0-.082.012-.118.012-.047.047-.035.082-.024.154.071.32.142.473.213.461.213.922.426 1.384.627.402.177.792.366 1.194.544.402.177.804.366 1.206.543.342.154.697.32 1.04.473.343.154.698.32 1.04.473.272.119.544.249.816.367 0 .035.012.047.036.059Z"/>
  <path fill="#8A92B2" d="M12.035 23.846c0 .012-.011.024-.011.036h-.012c0-.024-.024-.036-.036-.06-.733-1.028-1.466-2.068-2.199-3.097l-2.246-3.168c-.721-1.017-1.454-2.046-2.175-3.062-.19-.272-.379-.532-.568-.804-.012-.024-.024-.036-.047-.071.035 0 .059.023.07.035 1.03.603 2.046 1.206 3.075 1.809 1.182.698 2.352 1.395 3.535 2.093l.603.354c.023.024.023.048.023.071v5.699c0 .059 0 .118-.012.165Z"/>
  <path fill="#62688F" d="M4.729 12.225v-.012c.378-.166.745-.343 1.123-.509.485-.224.97-.437 1.454-.662.367-.165.745-.342 1.112-.508.544-.248 1.076-.485 1.62-.733.366-.166.732-.331 1.11-.508.26-.119.533-.237.793-.355.023-.012.059-.024.07-.047.013 0 .013.011 0 .023v7.508c0 .035-.011.07.013.094-.024.036-.048 0-.06-.012-.106-.059-.212-.118-.319-.189-2.282-1.348-4.575-2.707-6.857-4.055a.259.259 0 0 0-.059-.035ZM19.27 13.62h.013c0 .023-.024.047-.036.07-2.175 3.063-4.35 6.137-6.526 9.199-.225.319-.461.638-.686.957-.012-.012-.012-.023-.012-.035v-5.912c.497-.295.982-.579 1.478-.874 1.915-1.135 3.83-2.258 5.734-3.393.012.011.024 0 .036-.012Z"/>
  <path fill="#62688F" d="M12.024 8.914V.236c0-.035-.012-.059.012-.094 2.4 3.984 4.8 7.956 7.188 11.94.023.036.059.083.07.13-.165-.058-.319-.141-.472-.212-.19-.083-.39-.177-.58-.26-.118-.06-.248-.107-.366-.166-.201-.094-.402-.177-.603-.272-.118-.047-.236-.106-.355-.165l-.78-.355c-.13-.059-.26-.118-.402-.177l-.568-.248a5.118 5.118 0 0 1-.354-.166l-.78-.355c-.13-.059-.26-.118-.402-.177l-.568-.248c-.13-.06-.248-.118-.378-.178-.225-.106-.45-.212-.686-.307.036-.012.024-.012.024-.012Z"/>
</svg>
