<svg xmlns="http://www.w3.org/2000/svg" width="29" height="29" fill="none" viewBox="0 0 29 29">
  <path fill="#828282" d="M15 3C8.373 3 3 8.373 3 15s5.373 12 12 12 12-5.373 12-12S21.627 3 15 3Zm0 21.964c-5.502 0-9.964-4.462-9.964-9.964 0-5.502 4.462-9.964 9.964-9.964 5.502 0 9.964 4.462 9.964 9.964 0 5.502-4.462 9.964-9.964 9.964Zm5.314-15.752a.857.857 0 0 0-.656.013l-7.259 3.177-3.174 7.259a.855.855 0 0 0 .474 1.143.847.847 0 0 0 .656-.013l7.26-3.177 3.173-7.259a.861.861 0 0 0-.474-1.143ZM16.736 15.6l.701.702-1.135 1.136-.702-.702-4.136 1.81 1.808-4.135-.683-.686 1.136-1.136.683.683 4.138-1.808-1.81 4.136Zm-3.011-3.01-1.136 1.135.683.686 2.328 2.325.702.701 1.136-1.135-.702-.702-2.325-2.328-.686-.683Z"/>
</svg>
