<svg xmlns="http://www.w3.org/2000/svg" width="315" height="269" fill="none" viewBox="0 0 315 269">
  <path fill="#444" d="M3.789 45.081c-.276 0-.546-.03-.81-.09a3.44 3.44 0 0 1-.747-.261 2.555 2.555 0 0 1-.603-.414l.279-.576c.294.234.594.408.9.522.306.108.633.162.98.162.457 0 .814-.123 1.072-.369.258-.246.387-.57.387-.972 0-.414-.123-.753-.37-1.017-.245-.264-.587-.396-1.025-.396a1.81 1.81 0 0 0-.837.189 1.68 1.68 0 0 0-.64.567h-.54v-3.771h3.763v.63H2.556v2.529h-.198c.162-.252.384-.444.666-.576.288-.138.612-.207.972-.207.408 0 .759.084 1.053.252.3.168.53.402.693.702.162.3.243.651.243 1.053 0 .402-.09.759-.27 1.071a1.826 1.826 0 0 1-.756.72c-.324.168-.714.252-1.17.252ZM7.079 45v-6.624h.73v4.113h.017l2.097-2.007h.918L8.366 42.84l.018-.369L11.075 45h-.945l-2.304-2.124h-.018V45H7.08ZM4.446 82v-1.377H1.422v-.54l3.14-4.428h.613v4.365h.972v.603h-.972V82h-.73Zm0-1.98v-3.483h.198l-2.61 3.672v-.189h2.412ZM7.079 82v-6.624h.73v4.113h.017l2.097-2.007h.918L8.366 79.84l.018-.369L11.075 82h-.945l-2.304-2.124h-.018V82H7.08Zm-3.443 37.081c-.426 0-.834-.066-1.224-.198a2.673 2.673 0 0 1-.981-.567l.279-.576c.294.24.597.414.909.522.312.108.648.162 1.008.162.474 0 .834-.099 1.08-.297.246-.204.369-.501.369-.891 0-.372-.126-.654-.378-.846-.252-.198-.621-.297-1.107-.297h-.954v-.621h.89c.42 0 .754-.108 1-.324.246-.216.369-.51.369-.882 0-.336-.114-.591-.342-.765-.222-.18-.543-.27-.963-.27-.684 0-1.275.243-1.773.729l-.28-.585c.247-.252.556-.447.928-.585a3.213 3.213 0 0 1 1.17-.216c.624 0 1.113.144 1.467.432.354.288.53.687.53 1.197 0 .39-.11.726-.332 1.008a1.68 1.68 0 0 1-.9.567v-.099c.45.072.798.252 1.044.54.246.282.369.639.369 1.071 0 .552-.195.99-.585 1.314-.384.318-.915.477-1.593.477ZM7.079 119v-6.624h.73v4.113h.017l2.097-2.007h.918l-2.475 2.358.018-.369L11.075 119h-.945l-2.304-2.124h-.018V119H7.08Zm-5.333 37v-.558l2.25-2.349c.294-.306.513-.597.657-.873.15-.282.225-.573.225-.873 0-.366-.114-.642-.342-.828-.228-.192-.558-.288-.99-.288-.336 0-.648.06-.936.18a2.617 2.617 0 0 0-.82.549l-.27-.585c.24-.24.547-.432.919-.576.372-.15.765-.225 1.179-.225.642 0 1.137.15 1.485.45.348.294.522.714.522 1.26 0 .402-.1.786-.297 1.152-.192.36-.474.732-.846 1.116l-1.99 2.016v-.207h3.403V156h-4.15Zm5.333 0v-6.624h.73v4.113h.017l2.097-2.007h.918l-2.475 2.358.018-.369L11.075 156h-.945l-2.304-2.124h-.018V156H7.08Zm-4.964 37v-.639h1.494v-5.067h.396l-1.746 1.089v-.747l1.557-.981h.54v5.706H5.76V193H2.115Zm4.964 0v-6.624h.73v4.113h.017l2.097-2.007h.918l-2.475 2.358.018-.369L11.075 193h-.945l-2.304-2.124h-.018V193H7.08Zm-3.407 37.081c-.72 0-1.272-.279-1.656-.837-.384-.558-.576-1.365-.576-2.421 0-1.062.192-1.869.576-2.421.384-.552.936-.828 1.656-.828.726 0 1.278.276 1.656.828.384.552.576 1.356.576 2.412 0 1.062-.192 1.872-.576 2.43-.384.558-.936.837-1.656.837Zm0-.648c.504 0 .879-.213 1.125-.639.246-.426.369-1.086.369-1.98 0-.9-.123-1.557-.37-1.971-.245-.42-.62-.63-1.124-.63-.498 0-.873.21-1.125.63-.246.42-.37 1.077-.37 1.971 0 .894.124 1.554.37 1.98.252.426.627.639 1.125.639Zm3.407.567v-6.624h.73v4.113h.017l2.097-2.007h.918l-2.475 2.358.018-.369L11.075 230h-.945l-2.304-2.124h-.018V230H7.08ZM29.86 16v-.62l2.5-2.61c.327-.34.57-.663.73-.97a2.04 2.04 0 0 0 .25-.97c0-.407-.127-.713-.38-.92-.253-.213-.62-.32-1.1-.32-.373 0-.72.067-1.04.2-.313.127-.617.33-.91.61l-.3-.65a2.9 2.9 0 0 1 1.02-.64 3.47 3.47 0 0 1 1.31-.25c.713 0 1.263.167 1.65.5.387.327.58.793.58 1.4 0 .447-.11.873-.33 1.28-.213.4-.527.813-.94 1.24l-2.21 2.24v-.23h3.78V16h-4.61Zm8.996 0v-1.53h-3.36v-.6l3.49-4.92h.68v4.85h1.08v.67h-1.08V16h-.81Zm0-2.2V9.93h.22l-2.9 4.08v-.21h2.68Zm3.016 2.2V8.95h.83v3.12h4.25V8.95h.82V16h-.82v-3.22h-4.25V16h-.83Z"/>
  <rect width="40" height="25" x="83" fill="#2C2C33" rx="5"/>
  <path fill="#fff" d="M95.71 16v-.71h1.66V9.66h.44l-1.94 1.21v-.83l1.73-1.09h.6v6.34h1.56V16h-4.05Zm7.527 0-2.46-7.05h.87l2.15 6.35h-.35l2.26-6.35h.66l2.14 6.35h-.32l2.21-6.35h.82l-2.48 7.05h-.74l-2.08-6.11h.21l-2.17 6.11h-.72Z"/>
  <path fill="#444" d="M160.98 16v-.71h1.66V9.66h.44l-1.94 1.21v-.83l1.73-1.09h.6v6.34h1.56V16h-4.05Zm5.616 0V8.95h.72l2.83 6.39h-.29l2.83-6.39h.72V16h-.76v-5.98h.3l-2.67 5.98h-.55l-2.68-5.98h.3V16h-.75Zm59.639 0v-.71h1.66V9.66h.44l-1.94 1.21v-.83l1.73-1.09h.6v6.34h1.56V16h-4.05Zm7.346 0v-3.29l.18.56-2.92-4.32h.96l2.32 3.51h-.21l2.31-3.51h.92l-2.91 4.32.18-.56V16h-.83Zm55.539 0 3.11-7.05h.72l3.16 7.05h-.86l-.88-2.01.37.21h-4.31l.4-.21-.86 2.01h-.85Zm3.46-6.1-1.62 3.8-.24-.18h3.72l-.18.18-1.66-3.8h-.02Zm4.504 6.1V8.64h.81V16h-.81Zm2.383 0V8.64h.81V16h-.81Z"/>
  <g opacity=".2">
    <path fill="#525766" fill-opacity=".2" d="M19 37h.997v186H19zm36.875 0h.997v186h-.997zm36.876 0h.997v186h-.997zm36.875 0h.997v186h-.997zm36.876 0h.997v186h-.997zm36.875 0h.997v186h-.997zm36.876 0h.997v186h-.997zm36.875 0h.997v186h-.997z"/>
    <path fill="#525766" fill-opacity=".2" d="M314 222v1H20v-1zm0-37v1H20v-1zm0-37v1H20v-1zm0-37v1H20v-1zm0-37v1H20v-1zm0-37v1H20v-1zm.003 0H315v186h-.997z"/>
  </g>
  <path fill="url(#a)" d="M31.142 200.753H20V221a1 1 0 0 0 1 1h292a1 1 0 0 0 1-1V78l-12.307 20.124c-.448.733-1.55.598-1.807-.221l-5.1-16.203a1 1 0 0 0-.954-.7h-17.72c-.304 0-.592.139-.782.377l-7.372 9.246c-.19.238-.478.377-.782.377h-5.182c-.206 0-.406-.064-.575-.182l-9.279-6.517a1 1 0 0 0-.919-.12l-9.276 3.4a1.01 1.01 0 0 0-.352.221l-4.192 4.063a.99.99 0 0 0-.219.313l-1.864 4.208a.982.982 0 0 1-.127.212l-7.32 9.336a1.022 1.022 0 0 1-.178.176l-6.378 4.89-4.87 3.421a1.054 1.054 0 0 1-.243.125l-9.726 3.415a.974.974 0 0 1-.226.051l-9.06.957c-.19.02-.371.095-.521.215l-4.57 3.669a.996.996 0 0 0-.282.361l-12.091 26.205a1.001 1.001 0 0 1-.908.581h-5.158c-.12 0-.24-.022-.352-.064l-11.457-4.311a.998.998 0 0 0-.669-.012l-5.384 1.8a1 1 0 0 0-.438.293l-13.069 15.057a1.002 1.002 0 0 0-.24.549l-1.438 13.473a.996.996 0 0 1-.133.401l-2.859 4.849a1.002 1.002 0 0 1-.578.451l-13.537 4.003c-.271.08-.496.272-.619.528l-5.558 11.649a1 1 0 0 1-.497.484l-2.912 1.292a1.002 1.002 0 0 1-1.183-.285l-7.227-8.93a1 1 0 0 0-.777-.37h-3.48a.999.999 0 0 0-.825.434l-12.859 18.774a1 1 0 0 1-.825.435h-3.837a1 1 0 0 1-.895-.554l-2.617-5.252a.998.998 0 0 0-.265-.331l-3.832-3.107a1 1 0 0 0-1.25-.008l-6.376 5.029c-.11.086-.236.148-.37.183l-7.669 1.971a1 1 0 0 1-.532-.009l-7.834-2.312a1 1 0 0 1-.573-.442l-8.076-13.346a1 1 0 0 0-.553-.436l-2.553-.811a1 1 0 0 0-1.113.367l-6.447 8.897a1 1 0 0 1-.81.414Z"/>
  <path fill="#40BF6A" d="M21.996 199.782a1 1 0 1 0-.48 1.941l.48-1.941Zm9.662.971-.407-.914.407.914Zm7.17-9.897.367.931-.366-.931Zm14.342 15.551.324-.946-.324.946Zm14.341 0-.4-.916.4.916Zm7.17-5.654.053.998-.052-.998Zm8.068 9.895.46-.888-.46.888Zm22.408-19.792.46-.888-.46.888Zm8.067 9.897-.157.987.157-.987Zm9.859-14.138.565.825-.565-.825Zm14.341-4.241.638.771-.638-.771Zm6.275-19.792.633.774-.633-.774Zm14.833-17.082.285.958-.285-.958Zm19.434 4-.58-.815.58.815Zm20.43-30.5-.173.985.173-.985Zm25.413-9.5.622.783-.622-.783Zm27.406-25-.009-1 .009 1Zm13.454 7-.206-.979.206.979Zm13.454-10-.192.981.192-.98Zm22.423 18-.739-.674.739.674Zm14.162-20.294a1 1 0 1 0-1.416-1.412l1.416 1.412Zm-22.046 1.098.152.988-.152-.988Zm2.301 1.585.978-.21-.978.21ZM21.756 200.753l-.24.97.002.001.005.001.017.004.06.014.22.051a30.363 30.363 0 0 0 3.465.545c2.055.199 4.759.229 6.78-.673l-.814-1.827c-1.512.675-3.759.704-5.773.509a28.458 28.458 0 0 1-3.226-.507 7.493 7.493 0 0 1-.195-.045l-.048-.011a.052.052 0 0 1-.01-.003h-.003l-.24.971Zm10.31.913c2.631-1.174 3.424-3.671 4.092-5.608.717-2.077 1.307-3.589 3.038-4.271l-.734-1.861c-2.702 1.065-3.521 3.53-4.194 5.479-.721 2.09-1.298 3.667-3.017 4.434l.815 1.827Zm7.13-9.879c.822-.324 1.443-.363 1.928-.262.483.102.931.363 1.375.813.936.946 1.69 2.546 2.53 4.545.807 1.922 1.673 4.161 2.834 6.063 1.17 1.917 2.72 3.633 4.983 4.408l.648-1.893c-1.639-.561-2.873-1.834-3.924-3.557-1.06-1.737-1.853-3.785-2.697-5.795-.811-1.933-1.698-3.909-2.951-5.177-.651-.659-1.434-1.164-2.388-1.364-.953-.2-1.976-.074-3.072.358l.733 1.861Zm13.65 15.567c2.693.921 5.105 1.517 7.533 1.573 2.444.057 4.848-.433 7.532-1.603l-.8-1.833c-2.452 1.069-4.568 1.486-6.686 1.437-2.133-.05-4.323-.574-6.931-1.467l-.648 1.893Zm15.065-.03c1.922-.838 2.995-2.47 3.867-3.597.918-1.185 1.651-1.908 2.956-1.976l-.104-1.997c-2.252.116-3.472 1.508-4.433 2.748-1.007 1.3-1.741 2.403-3.085 2.989l.799 1.833Zm6.823-5.573c.921-.047 1.478.258 1.93.775.51.585.896 1.453 1.322 2.574.402 1.061.84 2.346 1.458 3.479.63 1.156 1.5 2.261 2.845 2.957l.92-1.776c-.867-.448-1.49-1.185-2.01-2.139-.532-.977-.903-2.071-1.344-3.23-.417-1.099-.908-2.291-1.685-3.181-.836-.956-1.977-1.537-3.54-1.456l.104 1.997Zm7.555 9.785c1.488.771 2.912.936 4.254.542 1.308-.385 2.416-1.265 3.372-2.353 1.888-2.15 3.455-5.441 4.94-8.541 1.527-3.189 2.972-6.187 4.638-8.084.821-.935 1.626-1.517 2.433-1.754.774-.227 1.669-.172 2.771.398l.92-1.776c-1.488-.77-2.913-.935-4.254-.541-1.309.384-2.417 1.265-3.373 2.353-1.888 2.15-3.455 5.441-4.94 8.54-1.527 3.19-2.972 6.188-4.638 8.085-.82.934-1.625 1.516-2.433 1.754-.774.227-1.668.172-2.77-.399l-.92 1.776Zm22.408-19.792c1.815.94 2.484 2.795 3.382 5.004.835 2.054 1.924 4.507 4.988 4.992l.313-1.975c-1.85-.293-2.584-1.644-3.448-3.77-.802-1.973-1.709-4.677-4.315-6.027l-.92 1.776Zm8.37 9.996c.965.153 1.834.089 2.608-.201.777-.291 1.39-.784 1.881-1.384.947-1.157 1.498-2.791 1.964-4.369.488-1.652.9-3.306 1.538-4.824.629-1.499 1.428-2.725 2.59-3.522l-1.13-1.65c-1.61 1.103-2.602 2.726-3.304 4.397-.695 1.654-1.158 3.494-1.612 5.032-.476 1.612-.936 2.866-1.593 3.668-.311.38-.648.634-1.036.779-.39.146-.899.209-1.593.099l-.313 1.975Zm10.581-14.3c2.156-1.476 4.341-1.605 6.8-1.789 2.422-.182 5.095-.423 7.614-2.506l-1.275-1.541c-1.987 1.643-4.073 1.871-6.489 2.052-2.381.179-5.113.308-7.78 2.134l1.13 1.65Zm14.414-4.295c3.534-2.923 3.484-7.101 3.49-10.677.007-3.747.068-6.891 2.78-9.112l-1.267-1.548c-3.55 2.908-3.507 7.081-3.513 10.657-.006 3.749-.061 6.903-2.765 9.139l1.275 1.541Zm6.27-19.789c1.034-.847 1.95-2.272 2.835-3.795.928-1.598 1.837-3.332 2.941-5.127 2.194-3.565 4.861-6.831 8.709-7.976l-.57-1.917c-4.606 1.37-7.608 5.214-9.842 8.845-1.111 1.804-2.107 3.689-2.967 5.17-.903 1.555-1.658 2.667-2.373 3.252l1.267 1.548Zm14.485-16.898c3.289-.978 6.798.517 10.296 2.178 1.677.796 3.377 1.639 4.903 2.082 1.526.444 3.157.573 4.529-.403l-1.159-1.63c-.617.439-1.482.499-2.812.113-1.331-.387-2.847-1.135-4.603-1.969-3.367-1.598-7.585-3.519-11.724-2.288l.57 1.917Zm19.728 3.857c2.252-1.601 4.02-4.55 5.556-7.822 1.547-3.296 2.959-7.153 4.378-10.667 1.441-3.566 2.89-6.78 4.544-8.994 1.653-2.211 3.312-3.179 5.2-2.847l.346-1.97c-2.994-.526-5.318 1.171-7.148 3.62-1.828 2.446-3.36 5.887-4.796 9.441-1.457 3.607-2.818 7.336-4.334 10.567-1.527 3.253-3.114 5.768-4.905 7.042l1.159 1.63Zm19.678-30.33c1.877.329 4.121.124 6.457-.389 2.351-.516 4.868-1.36 7.321-2.369 4.895-2.014 9.643-4.73 12.43-6.944l-1.244-1.566c-2.603 2.069-7.176 4.697-11.947 6.66-2.379.979-4.782 1.781-6.989 2.266-2.221.487-4.173.637-5.682.372l-.346 1.97Zm26.208-9.702c6.424-5.106 9.426-11.566 12.622-16.411 1.62-2.456 3.285-4.514 5.462-5.977 2.156-1.45 4.886-2.362 8.709-2.395l-.018-2c-4.16.036-7.284 1.039-9.807 2.735-2.504 1.683-4.344 4.002-6.016 6.535-3.386 5.134-6.103 11.105-12.196 15.947l1.244 1.566ZM251.224 85.5c.792-.007 1.708.355 2.789 1.046 1.072.686 2.165 1.6 3.332 2.55 1.136.927 2.345 1.89 3.557 2.558 1.21.666 2.569 1.12 3.973.824l-.412-1.957c-.721.152-1.564-.05-2.596-.619-1.03-.567-2.105-1.416-3.259-2.356-1.123-.916-2.324-1.922-3.518-2.685-1.185-.758-2.505-1.373-3.884-1.361l.018 2Zm13.651 6.978c4.152-.873 5.891-4.177 7.364-6.569.774-1.256 1.45-2.24 2.303-2.859.786-.57 1.798-.88 3.389-.569l.384-1.962c-2.076-.407-3.666-.018-4.947.912-1.215.881-2.073 2.198-2.831 3.43-1.592 2.581-2.912 4.995-6.074 5.66l.412 1.957Zm13.056-9.996c.786.153 1.893.174 3.098.131a62.893 62.893 0 0 0 4.065-.305c2.859-.295 5.847-.728 7.72-1.016l-.304-1.977c-1.86.287-4.81.713-7.621 1.003a61.057 61.057 0 0 1-3.932.296c-1.188.043-2.097.011-2.642-.095l-.384 1.962Zm16.055-.384c.554 2.59 1.619 7.385 2.717 11.355.546 1.976 1.113 3.792 1.64 5.035.254.598.541 1.168.868 1.545.154.178.431.45.84.543.521.12.962-.104 1.234-.403l-1.478-1.347a.735.735 0 0 1 .691-.199c.215.05.286.168.224.096-.106-.122-.292-.437-.538-1.016-.473-1.114-1.01-2.823-1.553-4.787-1.082-3.91-2.137-8.658-2.69-11.24l-1.955.418Zm7.299 18.075c2.889-3.17 4.571-6.815 6.348-10.386 1.791-3.6 3.708-7.203 7.075-10.581l-1.416-1.412c-3.609 3.621-5.645 7.474-7.45 11.102-1.819 3.656-3.375 7.011-6.035 9.93l1.478 1.347Zm-8.471-18.88a1.036 1.036 0 0 1 1.172.805l1.955-.419a3.036 3.036 0 0 0-3.431-2.364l.304 1.977Z"/>
  <path fill="#444" d="M25.23 246v-6.345h.649l2.547 5.751h-.261l2.547-5.751h.648V246h-.684v-5.382h.27L28.543 246h-.495l-2.412-5.382h.27V246h-.675Zm9.49.081c-.432 0-.81-.093-1.134-.279a1.932 1.932 0 0 1-.738-.81c-.174-.354-.26-.771-.26-1.251 0-.486.086-.903.26-1.251.174-.348.42-.615.738-.801a2.183 2.183 0 0 1 1.134-.288c.438 0 .816.096 1.134.288.324.186.573.453.747.801.18.348.27.765.27 1.251 0 .48-.09.897-.27 1.251a1.914 1.914 0 0 1-.747.81c-.318.186-.696.279-1.134.279Zm0-.594c.432 0 .774-.147 1.026-.441.252-.3.378-.735.378-1.305 0-.576-.129-1.011-.387-1.305-.252-.3-.59-.45-1.017-.45-.426 0-.765.15-1.017.45-.252.294-.378.729-.378 1.305 0 .57.126 1.005.378 1.305.252.294.591.441 1.017.441Zm3.288.513v-3.474c0-.168-.01-.339-.027-.513-.012-.18-.027-.357-.045-.531h.702l.09.99h-.108c.132-.348.342-.612.63-.792a1.861 1.861 0 0 1 1.017-.279c.534 0 .936.144 1.206.432.276.282.414.729.414 1.341V246h-.73v-2.781c0-.426-.086-.735-.26-.927-.168-.198-.432-.297-.792-.297-.42 0-.753.129-1 .387-.245.258-.368.603-.368 1.035V246h-.73Z"/>
  <path fill="#575B66" d="M27.829 267v-.852h1.992v-6.756h.528l-2.328 1.452v-.996l2.076-1.308h.72v7.608h1.872V267h-4.86Zm9.427.108c-.368 0-.728-.04-1.08-.12a4.586 4.586 0 0 1-.996-.348 3.407 3.407 0 0 1-.804-.552l.372-.768c.392.312.792.544 1.2.696.408.144.844.216 1.308.216.608 0 1.084-.164 1.428-.492.344-.328.516-.76.516-1.296 0-.552-.164-1.004-.492-1.356-.328-.352-.784-.528-1.368-.528-.416 0-.788.084-1.116.252a2.24 2.24 0 0 0-.852.756h-.72v-5.028h5.016v.84h-4.056v3.372h-.264c.216-.336.512-.592.888-.768a2.962 2.962 0 0 1 1.296-.276c.544 0 1.012.112 1.404.336.4.224.708.536.924.936.216.4.324.868.324 1.404 0 .536-.12 1.012-.36 1.428a2.434 2.434 0 0 1-1.008.96c-.432.224-.952.336-1.56.336Z"/>
  <path fill="#444" d="M66.824 246v-5.715h-2.241v-.63h5.22v.63h-2.232V246h-.747Zm4.754.081c-.534 0-.939-.147-1.215-.441-.27-.294-.405-.744-.405-1.35v-2.808h.73v2.79c0 .414.083.72.251.918.168.192.43.288.783.288.396 0 .714-.129.954-.387s.36-.603.36-1.035v-2.574h.73V246h-.712v-1.017h.117c-.126.348-.33.618-.612.81a1.674 1.674 0 0 1-.98.288Zm5.609 0c-.708 0-1.266-.204-1.674-.612-.408-.414-.612-.987-.612-1.719 0-.474.09-.885.27-1.233a1.96 1.96 0 0 1 .756-.819 2.097 2.097 0 0 1 1.116-.297c.414 0 .762.087 1.044.261.282.174.498.423.648.747.15.318.225.696.225 1.134v.27h-3.501v-.459h3.024l-.153.117c0-.48-.108-.855-.324-1.125-.216-.27-.537-.405-.963-.405-.45 0-.801.159-1.053.477-.252.312-.378.735-.378 1.269v.081c0 .564.138.993.414 1.287.282.288.675.432 1.179.432.27 0 .522-.039.756-.117.24-.084.468-.219.684-.405l.252.513c-.198.192-.45.342-.756.45-.3.102-.618.153-.954.153Z"/>
  <path fill="#575B66" d="M66.257 267v-.852h1.992v-6.756h.528l-2.328 1.452v-.996l2.076-1.308h.72v7.608h1.872V267h-4.86Zm9.548.108c-1.024 0-1.816-.36-2.376-1.08-.552-.728-.828-1.744-.828-3.048 0-.976.14-1.8.42-2.472.28-.68.68-1.196 1.2-1.548.52-.352 1.148-.528 1.884-.528.44 0 .884.092 1.332.276.448.176.816.424 1.104.744l-.36.768a2.889 2.889 0 0 0-.996-.684 2.785 2.785 0 0 0-1.092-.228c-.816 0-1.444.292-1.884.876-.432.576-.648 1.444-.648 2.604v1.116h-.108c.056-.456.192-.848.408-1.176.224-.336.516-.592.876-.768.36-.176.76-.264 1.2-.264.512 0 .964.112 1.356.336.392.224.7.54.924.948.224.4.336.86.336 1.38 0 .528-.116 1-.348 1.416a2.552 2.552 0 0 1-.972.984c-.416.232-.892.348-1.428.348Zm-.072-.84c.368 0 .692-.076.972-.228.288-.16.508-.38.66-.66.16-.288.24-.616.24-.984s-.08-.692-.24-.972c-.152-.28-.372-.5-.66-.66-.28-.16-.604-.24-.972-.24s-.692.08-.972.24c-.28.16-.5.38-.66.66-.152.28-.228.604-.228.972s.076.696.228.984c.16.28.38.5.66.66.28.152.604.228.972.228Z"/>
  <path fill="#444" d="m103.489 246-2.214-6.345h.783l1.935 5.715h-.315l2.034-5.715h.594l1.926 5.715h-.288l1.989-5.715h.738L108.439 246h-.666l-1.872-5.499h.189L104.137 246h-.648Zm9.682.081c-.708 0-1.266-.204-1.674-.612-.408-.414-.612-.987-.612-1.719 0-.474.09-.885.27-1.233a1.96 1.96 0 0 1 .756-.819 2.097 2.097 0 0 1 1.116-.297c.414 0 .762.087 1.044.261.282.174.498.423.648.747.15.318.225.696.225 1.134v.27h-3.501v-.459h3.024l-.153.117c0-.48-.108-.855-.324-1.125-.216-.27-.537-.405-.963-.405-.45 0-.801.159-1.053.477-.252.312-.378.735-.378 1.269v.081c0 .564.138.993.414 1.287.282.288.675.432 1.179.432.27 0 .522-.039.756-.117.24-.084.468-.219.684-.405l.252.513c-.198.192-.45.342-.756.45-.3.102-.618.153-.954.153Zm4.598 0a1.94 1.94 0 0 1-1.044-.279 1.934 1.934 0 0 1-.702-.81c-.162-.348-.243-.765-.243-1.251 0-.492.081-.912.243-1.26.168-.348.402-.615.702-.801a1.94 1.94 0 0 1 1.044-.279c.408 0 .759.102 1.053.306.3.204.501.48.603.828h-.108v-3.159h.729V246h-.72v-1.08h.099c-.096.36-.294.645-.594.855-.3.204-.654.306-1.062.306Zm.153-.594c.426 0 .768-.147 1.026-.441.258-.3.387-.735.387-1.305 0-.576-.129-1.011-.387-1.305-.258-.3-.6-.45-1.026-.45-.426 0-.768.15-1.026.45-.252.294-.378.729-.378 1.305 0 .57.126 1.005.378 1.305.258.294.6.441 1.026.441Z"/>
  <path fill="#575B66" d="M105.186 267v-.852h1.992v-6.756h.528l-2.328 1.452v-.996l2.076-1.308h.72v7.608h1.872V267h-4.86Zm7.027 0 4.164-8.04v.432h-4.728v-.852h5.628v.744L113.305 267h-1.092Z"/>
  <path fill="#444" d="M144.667 246v-5.715h-2.241v-.63h5.22v.63h-2.232V246h-.747Zm3.812 0v-6.624h.729v3.105h-.117c.126-.354.336-.621.63-.801.3-.186.645-.279 1.035-.279.54 0 .942.147 1.206.441.264.288.396.726.396 1.314V246h-.729v-2.799c0-.42-.084-.726-.252-.918-.162-.192-.426-.288-.792-.288-.42 0-.756.129-1.008.387-.246.258-.369.597-.369 1.017V246h-.729Zm6.866.081c-.534 0-.939-.147-1.215-.441-.27-.294-.405-.744-.405-1.35v-2.808h.729v2.79c0 .414.084.72.252.918.168.192.429.288.783.288.396 0 .714-.129.954-.387s.36-.603.36-1.035v-2.574h.729V246h-.711v-1.017h.117c-.126.348-.33.618-.612.81a1.674 1.674 0 0 1-.981.288Z"/>
  <path fill="#575B66" d="M144.614 267v-.852h1.992v-6.756h.528l-2.328 1.452v-.996l2.076-1.308h.72v7.608h1.872V267h-4.86Zm9.272.108c-.968 0-1.716-.204-2.244-.612-.528-.416-.792-.996-.792-1.74 0-.584.18-1.068.54-1.452.36-.392.836-.628 1.428-.708v.18c-.536-.112-.964-.356-1.284-.732a2.052 2.052 0 0 1-.48-1.356c0-.712.252-1.264.756-1.656.504-.4 1.196-.6 2.076-.6.888 0 1.584.2 2.088.6.504.392.756.944.756 1.656 0 .52-.152.972-.456 1.356-.296.384-.712.624-1.248.72v-.168c.584.08 1.048.316 1.392.708.344.384.516.868.516 1.452 0 .744-.264 1.324-.792 1.74-.528.408-1.28.612-2.256.612Zm0-.816c.704 0 1.228-.132 1.572-.396.352-.264.528-.664.528-1.2 0-.528-.176-.92-.528-1.176-.344-.264-.868-.396-1.572-.396-.704 0-1.232.132-1.584.396-.344.256-.516.648-.516 1.176 0 .536.176.936.528 1.2.352.264.876.396 1.572.396Zm0-3.984c.608 0 1.072-.136 1.392-.408.328-.272.492-.648.492-1.128 0-.48-.164-.852-.492-1.116-.32-.272-.784-.408-1.392-.408-.608 0-1.076.136-1.404.408-.32.264-.48.636-.48 1.116 0 .48.16.856.48 1.128.328.272.796.408 1.404.408Z"/>
  <path fill="#444" d="M182.816 246v-6.345h3.96v.612h-3.213v2.223h3.015v.612h-3.015V246h-.747Zm4.867 0v-3.429c0-.18-.006-.363-.018-.549a7.645 7.645 0 0 0-.036-.54h.702l.09 1.098-.126.009c.06-.27.165-.492.315-.666.15-.174.327-.303.531-.387.204-.09.417-.135.639-.135.09 0 .168.003.234.009a.683.683 0 0 1 .198.045l-.009.648a1.058 1.058 0 0 0-.252-.054 1.55 1.55 0 0 0-.252-.018c-.264 0-.495.063-.693.189a1.27 1.27 0 0 0-.441.486 1.426 1.426 0 0 0-.144.63V246h-.738Zm3.288 0v-4.518h.729V246h-.729Zm-.09-5.544v-.819h.9v.819h-.9Z"/>
  <path fill="#575B66" d="M181.543 267v-.852h1.992v-6.756h.528l-2.328 1.452v-.996l2.076-1.308h.72v7.608h1.872V267h-4.86Zm8.707.108c-.44 0-.884-.092-1.332-.276a3.407 3.407 0 0 1-1.116-.744l.372-.78c.304.312.636.544.996.696.36.152.724.228 1.092.228.808 0 1.428-.288 1.86-.864.44-.584.66-1.456.66-2.616v-1.116h.12c-.048.448-.188.84-.42 1.176a2.194 2.194 0 0 1-.876.768 2.62 2.62 0 0 1-1.188.264c-.512 0-.968-.112-1.368-.336-.392-.224-.7-.54-.924-.948a2.82 2.82 0 0 1-.336-1.38c0-.536.116-1.008.348-1.416.24-.416.564-.74.972-.972.416-.24.892-.36 1.428-.36 1.032 0 1.824.36 2.376 1.08.56.72.84 1.736.84 3.048 0 .968-.14 1.792-.42 2.472-.28.68-.68 1.196-1.2 1.548-.52.352-1.148.528-1.884.528Zm.372-4.092c.368 0 .692-.08.972-.24.28-.16.496-.38.648-.66.16-.28.24-.604.24-.972 0-.376-.08-.704-.24-.984-.152-.28-.368-.5-.648-.66-.28-.16-.604-.24-.972-.24s-.696.08-.984.24c-.28.16-.5.38-.66.66-.152.28-.228.608-.228.984 0 .368.076.692.228.972.16.28.38.5.66.66.288.16.616.24.984.24Z"/>
  <path fill="#444" d="M219.43 246.081c-.51 0-.966-.066-1.368-.198a3.232 3.232 0 0 1-1.053-.567l.27-.594c.21.156.42.288.63.396.216.102.447.18.693.234.246.048.522.072.828.072.534 0 .93-.099 1.188-.297a.948.948 0 0 0 .387-.792c0-.282-.09-.498-.27-.648-.18-.15-.495-.27-.945-.36l-.945-.189c-.582-.12-1.017-.315-1.305-.585-.282-.27-.423-.636-.423-1.098 0-.378.096-.708.288-.99.198-.282.474-.501.828-.657.354-.156.765-.234 1.233-.234.45 0 .861.069 1.233.207.372.132.69.327.954.585l-.261.576a2.632 2.632 0 0 0-.891-.54 2.976 2.976 0 0 0-1.044-.171c-.492 0-.882.108-1.17.324-.282.21-.423.498-.423.864 0 .294.09.525.27.693.18.162.477.285.891.369l.954.189c.612.126 1.062.315 1.35.567.288.252.432.606.432 1.062 0 .348-.096.657-.288.927-.186.27-.453.48-.801.63-.348.15-.762.225-1.242.225Zm5.175 0c-.402 0-.753-.093-1.053-.279a1.934 1.934 0 0 1-.702-.81c-.162-.348-.243-.765-.243-1.251 0-.492.081-.912.243-1.26.168-.348.402-.615.702-.801.3-.186.651-.279 1.053-.279.408 0 .759.105 1.053.315.3.204.498.483.594.837h-.108l.099-1.071h.702l-.054.531a7.456 7.456 0 0 0-.018.513V246h-.729v-1.062h.099a1.434 1.434 0 0 1-.594.837c-.3.204-.648.306-1.044.306Zm.144-.594c.432 0 .774-.147 1.026-.441.252-.3.378-.735.378-1.305 0-.576-.126-1.011-.378-1.305-.252-.3-.594-.45-1.026-.45-.426 0-.768.15-1.026.45-.252.294-.378.729-.378 1.305 0 .57.126 1.005.378 1.305.258.294.6.441 1.026.441Zm5.136.594c-.444 0-.783-.126-1.017-.378-.234-.258-.351-.645-.351-1.161v-2.493h-.882v-.567h.882v-1.233l.729-.207v1.44h1.296v.567h-1.296v2.412c0 .36.06.618.18.774.126.15.312.225.558.225.114 0 .216-.009.306-.027a1.92 1.92 0 0 0 .243-.081v.612a1.254 1.254 0 0 1-.306.081 1.656 1.656 0 0 1-.342.036Z"/>
  <path fill="#575B66" d="M217.48 267v-.744l3-3.132c.392-.408.684-.796.876-1.164.2-.376.3-.764.3-1.164 0-.488-.152-.856-.456-1.104-.304-.256-.744-.384-1.32-.384-.448 0-.864.08-1.248.24a3.49 3.49 0 0 0-1.092.732l-.36-.78c.32-.32.728-.576 1.224-.768.496-.2 1.02-.3 1.572-.3.856 0 1.516.2 1.98.6.464.392.696.952.696 1.68 0 .536-.132 1.048-.396 1.536-.256.48-.632.976-1.128 1.488l-2.652 2.688v-.276h4.536V267h-5.532Zm9.763.108c-.96 0-1.696-.372-2.208-1.116-.512-.744-.768-1.82-.768-3.228 0-1.416.256-2.492.768-3.228.512-.736 1.248-1.104 2.208-1.104.968 0 1.704.368 2.208 1.104.512.736.768 1.808.768 3.216 0 1.416-.256 2.496-.768 3.24-.512.744-1.248 1.116-2.208 1.116Zm0-.864c.672 0 1.172-.284 1.5-.852.328-.568.492-1.448.492-2.64 0-1.2-.164-2.076-.492-2.628-.328-.56-.828-.84-1.5-.84-.664 0-1.164.28-1.5.84-.328.56-.492 1.436-.492 2.628 0 1.192.164 2.072.492 2.64.336.568.836.852 1.5.852Z"/>
  <path fill="#444" d="M255.896 246.081c-.51 0-.966-.066-1.368-.198a3.232 3.232 0 0 1-1.053-.567l.27-.594c.21.156.42.288.63.396.216.102.447.18.693.234.246.048.522.072.828.072.534 0 .93-.099 1.188-.297a.948.948 0 0 0 .387-.792c0-.282-.09-.498-.27-.648-.18-.15-.495-.27-.945-.36l-.945-.189c-.582-.12-1.017-.315-1.305-.585-.282-.27-.423-.636-.423-1.098 0-.378.096-.708.288-.99.198-.282.474-.501.828-.657.354-.156.765-.234 1.233-.234.45 0 .861.069 1.233.207.372.132.69.327.954.585l-.261.576a2.632 2.632 0 0 0-.891-.54 2.976 2.976 0 0 0-1.044-.171c-.492 0-.882.108-1.17.324-.282.21-.423.498-.423.864 0 .294.09.525.27.693.18.162.477.285.891.369l.954.189c.612.126 1.062.315 1.35.567.288.252.432.606.432 1.062 0 .348-.096.657-.288.927-.186.27-.453.48-.801.63-.348.15-.762.225-1.242.225Zm5.049 0c-.534 0-.939-.147-1.215-.441-.27-.294-.405-.744-.405-1.35v-2.808h.729v2.79c0 .414.084.72.252.918.168.192.429.288.783.288.396 0 .714-.129.954-.387s.36-.603.36-1.035v-2.574h.729V246h-.711v-1.017h.117c-.126.348-.33.618-.612.81a1.674 1.674 0 0 1-.981.288Zm3.602-.081v-3.474c0-.168-.009-.339-.027-.513-.012-.18-.027-.357-.045-.531h.702l.09.99h-.108c.132-.348.342-.612.63-.792a1.861 1.861 0 0 1 1.017-.279c.534 0 .936.144 1.206.432.276.282.414.729.414 1.341V246h-.729v-2.781c0-.426-.087-.735-.261-.927-.168-.198-.432-.297-.792-.297-.42 0-.753.129-.999.387s-.369.603-.369 1.035V246h-.729Z"/>
  <path fill="#575B66" d="M254.908 267v-.744l3-3.132c.392-.408.684-.796.876-1.164.2-.376.3-.764.3-1.164 0-.488-.152-.856-.456-1.104-.304-.256-.744-.384-1.32-.384-.448 0-.864.08-1.248.24a3.49 3.49 0 0 0-1.092.732l-.36-.78c.32-.32.728-.576 1.224-.768.496-.2 1.02-.3 1.572-.3.856 0 1.516.2 1.98.6.464.392.696.952.696 1.68 0 .536-.132 1.048-.396 1.536-.256.48-.632.976-1.128 1.488l-2.652 2.688v-.276h4.536V267h-5.532Zm7.687 0v-.852h1.992v-6.756h.528l-2.328 1.452v-.996l2.076-1.308h.72v7.608h1.872V267h-4.86Z"/>
  <path fill="#444" d="M292.231 246v-6.345h.648l2.547 5.751h-.261l2.547-5.751h.648V246h-.684v-5.382h.27L295.543 246h-.495l-2.412-5.382h.27V246h-.675Zm9.489.081c-.432 0-.81-.093-1.134-.279a1.932 1.932 0 0 1-.738-.81c-.174-.354-.261-.771-.261-1.251 0-.486.087-.903.261-1.251.174-.348.42-.615.738-.801a2.183 2.183 0 0 1 1.134-.288c.438 0 .816.096 1.134.288.324.186.573.453.747.801.18.348.27.765.27 1.251 0 .48-.09.897-.27 1.251a1.914 1.914 0 0 1-.747.81c-.318.186-.696.279-1.134.279Zm0-.594c.432 0 .774-.147 1.026-.441.252-.3.378-.735.378-1.305 0-.576-.129-1.011-.387-1.305-.252-.3-.591-.45-1.017-.45-.426 0-.765.15-1.017.45-.252.294-.378.729-.378 1.305 0 .57.126 1.005.378 1.305.252.294.591.441 1.017.441Zm3.288.513v-3.474c0-.168-.009-.339-.027-.513-.012-.18-.027-.357-.045-.531h.702l.09.99h-.108c.132-.348.342-.612.63-.792a1.861 1.861 0 0 1 1.017-.279c.534 0 .936.144 1.206.432.276.282.414.729.414 1.341V246h-.729v-2.781c0-.426-.087-.735-.261-.927-.168-.198-.432-.297-.792-.297-.42 0-.753.129-.999.387s-.369.603-.369 1.035V246h-.729Z"/>
  <path fill="#575B66" d="M294.337 267v-.744l3-3.132c.392-.408.684-.796.876-1.164.2-.376.3-.764.3-1.164 0-.488-.152-.856-.456-1.104-.304-.256-.744-.384-1.32-.384-.448 0-.864.08-1.248.24a3.49 3.49 0 0 0-1.092.732l-.36-.78c.32-.32.728-.576 1.224-.768.496-.2 1.02-.3 1.572-.3.856 0 1.516.2 1.98.6.464.392.696.952.696 1.68 0 .536-.132 1.048-.396 1.536-.256.48-.632.976-1.128 1.488l-2.652 2.688v-.276h4.536V267h-5.532Zm7.195 0v-.744l3-3.132c.392-.408.684-.796.876-1.164.2-.376.3-.764.3-1.164 0-.488-.152-.856-.456-1.104-.304-.256-.744-.384-1.32-.384-.448 0-.864.08-1.248.24a3.49 3.49 0 0 0-1.092.732l-.36-.78c.32-.32.728-.576 1.224-.768.496-.2 1.02-.3 1.572-.3.856 0 1.516.2 1.98.6.464.392.696.952.696 1.68 0 .536-.132 1.048-.396 1.536-.256.48-.632.976-1.128 1.488l-2.652 2.688v-.276h4.536V267h-5.532Z"/>
  <defs>
    <linearGradient id="a" x1="167" x2="167" y1="82" y2="222" gradientUnits="userSpaceOnUse">
      <stop stop-color="#40BF6A" stop-opacity=".3"/>
      <stop offset="1" stop-color="#40BF6A" stop-opacity="0"/>
    </linearGradient>
  </defs>
</svg>
