<svg xmlns="http://www.w3.org/2000/svg" width="29" height="29" fill="none" viewBox="0 0 29 29">
  <path fill="#609FFF" d="m26.328 12.874-.001-.002-10.2-10.198A2.286 2.286 0 0 0 14.5 2a2.29 2.29 0 0 0-1.628.674L2.68 12.867l-.01.01a2.304 2.304 0 0 0 .004 3.25 2.288 2.288 0 0 0 1.598.675h.407v7.505A2.697 2.697 0 0 0 7.372 27h3.99a.733.733 0 0 0 .732-.732v-5.884a1.23 1.23 0 0 1 1.23-1.23h2.353a1.23 1.23 0 0 1 1.229 1.23v5.884c0 .404.328.732.732.732h3.99a2.697 2.697 0 0 0 2.695-2.693v-7.505h.377a2.29 2.29 0 0 0 1.627-.674 2.305 2.305 0 0 0 .001-3.254Z"/>
</svg>
