<svg xmlns="http://www.w3.org/2000/svg" width="322" height="309" fill="none" viewBox="0 0 322 309">
  <path fill="#609FFF" d="M174.967 195.931c-3.97 6.295-9.02 11.839-14.822 16.677-31.476 26.238-85.736 31.453-118.198 17.312-7.493-3.265-13.836-7.564-18.463-12.896-28.328-32.556-40.308-118.668 18.392-151.27C166.651-3.565 205.526 147.73 174.967 195.93Z"/>
  <path fill="#FFFEF2" d="M160.146 212.609c-31.476 26.238-85.736 31.452-118.199 17.312.47-3.101 1.762-6.131 4.04-8.903 0 0-8.103-10.053-11.909-34.623-4.815-31.147 1.081-41.012 1.081-41.012-6.366-6.554-11.627-13.671-14.211-21.188-3.57-10.382 1.785-18.721 8.245-21.727 6.46-3.007 13.506 1.01 20.013 2.466h.07a3.499 3.499 0 0 0-.047.493c-.305 4.252 4.134 5.802 14.07 5.215.024.047 6.154 12.402 10.1 20.389.752 1.503 1.41 2.865 1.95 3.946 7.258-.517 27.506-8.48 30.09-9.325-.188-.376-.728-1.48-1.48-3.054-2.396-5.027-7.023-14.892-10.265-21.798 7-3.829 28.728-16.278 36.291-13.976 7.564 2.325 13.483 8.174 9.795 28.939-3.406 19.12-10.805 41.2-11.956 44.606 12.027 19.308 28.939 46.931 28.939 46.931l3.383 5.309Z"/>
  <path fill="#FFFEF2" d="M103.982 122.551c-2.396-5.027-7.023-14.892-10.264-21.798-2.044-4.369-3.547-7.564-3.547-7.564s11.157-12.05 11.157-13.318c0-1.268-11.463-.4-23.513 1.597-2.748 5.567-12.496 7.987-12.496 7.987 2.255 7.117-.752 17.147-4.299 15.174-1.01-.564-2.02-1.645-2.842-2.983-4.886-.729-8.362.047-8.902 3.241a3.44 3.44 0 0 0-.047.493c-.306 4.252 4.134 5.802 14.07 5.215.023.047 6.154 12.402 10.1 20.389.752 1.503 1.41 2.865 1.95 3.946 7.258-.517 27.506-8.48 30.09-9.325-.165-.353-.682-1.457-1.457-3.054ZM75.725 97.324a1.13 1.13 0 0 1-1.433-.635l-.987-2.63a1.13 1.13 0 0 1 .634-1.433c.118-.047.259-.07.376-.07.447 0 .87.281 1.034.727l.986 2.631a1.065 1.065 0 0 1-.61 1.41Zm5.238-3.923a1.13 1.13 0 0 1-1.433-.634l-.987-2.631a1.13 1.13 0 0 1 .635-1.433 1.122 1.122 0 0 1 1.433.634l.986 2.631c.211.587-.07 1.221-.634 1.433Z"/>
  <path fill="#FFFEF2" d="M81.597 91.968a1.13 1.13 0 0 1-.634 1.433 1.13 1.13 0 0 1-1.433-.635l-1.01-2.63a1.13 1.13 0 0 1 .634-1.433 1.122 1.122 0 0 1 1.433.634l1.01 2.63Zm-5.238 3.922a1.13 1.13 0 0 1-.634 1.433 1.13 1.13 0 0 1-1.433-.634l-1.01-2.63a1.13 1.13 0 0 1 .634-1.433 1.122 1.122 0 0 1 1.433.634l1.01 2.63Z"/>
  <path fill="#202D37" d="M75.701 97.323a1.13 1.13 0 0 1-1.433-.634l-.986-2.631a1.13 1.13 0 0 1 .634-1.433 1.13 1.13 0 0 1 1.433.634l.986 2.631a1.075 1.075 0 0 1-.634 1.433Zm5.262-3.923a1.13 1.13 0 0 1-1.433-.634l-.987-2.63a1.13 1.13 0 0 1 .634-1.433 1.13 1.13 0 0 1 1.433.634l.987 2.63c.211.588-.07 1.222-.634 1.433Z"/>
  <path fill="#FFFEF2" d="M165.665 10.295c25.627-2.137 77.702-2.677 80.028 0 2.349 2.678 6.506 73.193 3.5 80.71-3.007 7.516-64.338 8.526-76.857 8.362-12.544-.165-14.376-4.675-15.198-12.356-.846-7.68-1.997-59.146-1.997-65.323 0-6.225.494-10.57 10.524-11.393Z"/>
  <path fill="#202D37" d="M175.248 100.189c-1.151 0-2.114 0-2.889-.024-6.177-.093-10.147-1.221-12.567-3.593-2.254-2.232-3.006-5.403-3.452-9.49-.846-7.845-2.021-59.945-2.021-65.418 0-6.577.799-11.322 11.275-12.19 12.332-1.034 31.476-1.739 48.811-1.81 8.621-.046 16.043.095 21.446.376 9.396.494 10.1 1.292 10.476 1.715.305.352 1.034 1.175 2.161 13.154.681 7.164 1.316 16.349 1.809 25.885.446 8.691 1.715 37.442-.306 42.516-.516 1.292-2.348 3.242-12.144 5.003-5.778 1.034-13.67 1.903-23.442 2.56-15.15 1.034-31.194 1.316-39.157 1.316Zm-9.583-89.894.07.822c-9.325.776-9.771 4.322-9.771 10.547 0 6.93 1.198 57.807 1.996 65.254.775 7.117 2.138 11.462 14.399 11.627 6.225.094 24.664-.118 41.929-1.292 29.244-1.973 33.636-5.238 34.153-6.554 1.245-3.1 1.316-19.355.212-41.411-1.104-21.869-2.702-36.902-3.571-38.452-.939-.635-8.479-1.645-31.17-1.527-17.147.094-36.056.798-48.177 1.785l-.07-.799Z"/>
  <path fill="#FBD931" d="M232.375 11.305c-.564 6.718 3.828 11.228 9.677 11.721 5.849.494 11.745-3.17 12.309-9.889C254.924 6.42 249.827.524 243.978.03c-5.849-.47-11.04 4.58-11.603 11.275Z"/>
  <path fill="#202D37" d="M176.987 45.2c-1.95 0-3.735-.117-5.332-.422a.859.859 0 0 1-.658-.658.81.81 0 0 1 .353-.846c.07-.047 7.61-4.909 15.268-9.7 15.643-9.82 16.513-9.913 16.912-9.937.446-.047 1.315-.117 17.006 8.01 7.658 3.97 15.198 7.986 15.268 8.033.329.165.493.54.423.916-.07.353-.399.635-.752.635-.258.023-24.992 1.198-33.683 1.644-2.983.14-6.46.587-10.171 1.057-5.027.61-10.195 1.268-14.634 1.268Zm-2.842-1.761c4.815.399 11.157-.4 17.311-1.175 3.735-.47 7.259-.916 10.289-1.08 6.882-.353 23.818-1.175 30.7-1.504-11.134-5.919-26.801-14.023-28.727-14.445-1.95.68-18.369 11.016-29.573 18.204Zm126.114 111.949c-.047 0-.094 0-.141-.023a.823.823 0 0 1-.682-.94c.141-.775 13.436-78.618 14.846-87.357 1.55-9.49 2.043-14.14-3.101-15.808-2.631-.845-14.093-.728-28.539.306-14.705 1.057-27.506 2.677-32.557 4.134-.446.117-.892-.118-1.01-.564-.117-.446.118-.893.564-1.01 6.272-1.809 21.657-3.383 32.909-4.181 11.815-.846 25.697-1.363 29.15-.235 6.741 2.184 5.684 8.667 4.228 17.64-1.409 8.762-14.728 86.582-14.845 87.381a.876.876 0 0 1-.822.657Z"/>
  <path fill="#202D37" d="M285.554 154.332h-.141a.823.823 0 0 1-.681-.94c.118-.798 12.708-79.135 13.671-90.222.094-1.057.024-2.537-.893-3.453-.751-.775-2.02-1.128-3.758-1.057l-4.51.211c-15.761.775-33.636 1.621-38.781 2.89a.8.8 0 0 1-.986-.611.799.799 0 0 1 .611-.987c5.308-1.292 22.479-2.137 39.109-2.936 1.527-.07 3.03-.14 4.51-.211 2.232-.118 3.923.422 5.027 1.55 1.057 1.08 1.503 2.725 1.339 4.745-.963 11.157-13.554 89.541-13.671 90.34-.117.399-.47.681-.846.681Zm-17.499 61.518h-.047c-.258-.024-6.342-.446-29.221-4.04-22.69-3.571-28.093-4.416-28.093-14.775-.023-18.486 9.466-67.696 12.802-83.481a.82.82 0 0 1 .963-.634.82.82 0 0 1 .634.963c-4.181 19.801-12.778 66.169-12.755 83.128 0 8.645 3.03 9.443 26.708 13.154 22.761 3.571 29.009 4.017 29.079 4.017a.835.835 0 0 1 .776.869c-.047.447-.423.799-.846.799Z"/>
  <path fill="#202D37" d="M249.968 208.098c-4.087 0-16.959-3.03-18.227-3.476-1.433-.517-1.786-2.96-1.551-4.557.212-1.574.963-2.513 2.044-2.584 5.262-.352 18.275 1.856 20.295 3.782 1.127 1.057 1.55 2.795 1.08 4.299-.423 1.362-1.503 2.254-2.912 2.489a6.226 6.226 0 0 1-.729.047Zm-16.325-8.996c-.469 0-.916.023-1.315.047-.141 0-.329.305-.446.846-.306 1.362.117 2.912.446 3.1 1.292.47 14.07 3.383 17.593 3.383.212 0 .376 0 .517-.024 1.01-.164 1.433-.822 1.597-1.339.282-.916.024-1.996-.634-2.631-1.245-1.174-11.65-3.382-17.758-3.382Zm42.257 1.269h-.117c-.141-.024-13.389-1.739-26.731-3.994-7.845-1.315-14.188-2.56-18.862-3.687-8.057-1.95-9.584-3.148-10.03-4.064-1.268-2.654.188-18.134 1.644-30.654 1.621-13.882 3.9-29.737 5.215-36.079a.808.808 0 0 1 .963-.634.808.808 0 0 1 .634.963c-1.292 6.318-3.594 22.103-5.191 35.938-2.302 19.872-2.443 28.399-1.809 29.738.094.188.987 1.268 8.973 3.194 4.628 1.104 10.946 2.349 18.745 3.665 13.318 2.231 26.519 3.969 26.66 3.993.447.047.775.47.705.916a.81.81 0 0 1-.799.705Zm17.171-47.285c-.047 0-.094 0-.141-.023a.79.79 0 0 1-.658-.94c.235-1.315.728-3.993 1.41-7.681 3.852-20.835 14.117-76.152 12.613-84.232-.094-.447.212-.87.658-.963.446-.094.869.211.963.657 1.386 7.423-6.013 49.234-12.614 84.82-.681 3.688-1.174 6.342-1.409 7.658a.83.83 0 0 1-.822.704Z"/>
  <path fill="#FBD931" d="M308.617 188.039c7.391-10.631 5.197-24.94-4.901-31.961-10.098-7.021-24.276-4.095-31.668 6.536-7.391 10.63-5.197 24.94 4.901 31.961 10.098 7.021 24.276 4.095 31.668-6.536Z"/>
  <path fill="#202D37" d="M202.05 175.237c-.047 0-.118 0-.165-.023-10.734-2.232-18.533-10.336-21.398-22.245a.799.799 0 0 1 .61-.986.8.8 0 0 1 .987.61c2.725 11.275 10.053 18.933 20.13 21.023a.808.808 0 0 1 .634.963.826.826 0 0 1-.798.658Z"/>
  <path fill="#FFFEF2" d="M162.87 131.688c1.762-2.373 21.728-5.544 23.325-3.618 1.456 1.762 4.745 14.893 1.456 15.621-4.369.963-19.472 3.782-21.163 1.621-1.692-2.208-5.967-10.477-3.618-13.624Z"/>
  <path fill="#202D37" d="M170.246 146.909c-3.03 0-3.993-.564-4.416-1.128-1.504-1.926-6.413-10.852-3.641-14.586 1.715-2.302 14.305-4.369 19.966-4.534 3.382-.094 4.251.399 4.651.869 1.503 1.809 3.969 11.534 2.701 15.198-.423 1.221-1.175 1.621-1.715 1.738-2.161.47-7.047 1.433-11.674 1.997-2.513.328-4.416.446-5.872.446Zm12.707-18.604c-1.503 0-3.664.141-6.553.541-6.812.916-12.285 2.513-12.896 3.359-1.855 2.489 1.645 10.077 3.618 12.59.023.047.892 1.033 8.832.07 4.557-.563 9.372-1.503 11.509-1.973.212-.047.376-.282.517-.681 1.081-3.124-1.386-12.308-2.396-13.6-.235-.165-1.104-.306-2.631-.306Z"/>
  <path fill="#202D37" d="M175.977 139.721c-1.856 0-4.745-1.01-10.054-2.983a.848.848 0 0 1-.493-1.057.847.847 0 0 1 1.057-.493c6.319 2.372 9.138 3.265 10.242 2.748.751-.352 3.899-4.134 6.365-7.423.282-.352.799-.446 1.151-.164.352.282.446.799.165 1.151-1.269 1.691-5.52 7.235-6.977 7.916a3.496 3.496 0 0 1-1.456.305Zm45.499-70.351c-.4 0-.752-.281-.799-.68-.117-.752-3.124-18.463-2.819-27.53a.85.85 0 0 1 .846-.799.85.85 0 0 1 .799.846c-.306 8.902 2.748 27.013 2.795 27.2a.823.823 0 0 1-.681.94c-.071.024-.118.024-.141.024Zm7.775-.704a.828.828 0 0 1-.823-.799c0-.211-.657-21.727-1.62-26.965a.841.841 0 0 1 .657-.964c.447-.093.87.212.963.658.964 5.38 1.621 26.332 1.645 27.224.023.447-.353.823-.799.846h-.023Z"/>
  <path fill="#202D37" d="M219.996 75.877a.827.827 0 0 1-.799-.634 4640.4 4640.4 0 0 0-.141-.564c-.493-2.02-.916-3.758-.047-5.12.611-.94 1.692-1.527 3.477-1.856 2.654-.517 8.926-1.386 9.583 1.48.376 1.62.447 5.261.447 5.426a.85.85 0 0 1-.799.846h-.023a.812.812 0 0 1-.822-.8c0-.046-.071-3.616-.4-5.073-.117-.54-2.584-1.198-7.681-.235-1.268.235-2.067.611-2.396 1.128-.493.775-.164 2.137.259 3.852l.141.564a.8.8 0 0 1-.611.986c-.071-.023-.141 0-.188 0ZM201.04 70.64a.837.837 0 0 1-.822-.753c0-.046-.517-5.402-1.363-10.03-.963-5.308-1.62-10.687-2.161-17.429-.047-.446.306-.845.752-.892.446-.047.846.305.893.752.54 6.694 1.198 12.026 2.137 17.264.846 4.675 1.362 10.1 1.362 10.148a.817.817 0 0 1-.751.892c0 .047-.024.047-.047.047Zm9.607-.47a.804.804 0 0 1-.775-.588c-.916-2.936-1.409-8.902-1.926-15.198-.353-4.322-.728-8.785-1.245-12.543-.071-.446.258-.869.705-.94.446-.07.869.259.939.705.54 3.782.893 8.292 1.269 12.637.516 6.202 1.01 12.074 1.855 14.846.141.422-.117.892-.54 1.033-.117.024-.188.047-.282.047Z"/>
  <path fill="#202D37" d="M199.678 77.146a.852.852 0 0 1-.822-.705c-.071-.54-.165-1.034-.235-1.48-.376-2.466-.588-3.829.141-4.838.61-.823 1.667-1.081 2.724-1.222 3.242-.493 9.607-.423 10.993-.305 2.255.211 2.208 3.946 1.973 6.741-.047.446-.446.799-.892.752-.446-.047-.799-.447-.752-.893.329-4.016-.305-4.933-.493-4.956-1.292-.117-7.517-.164-10.594.305-.939.141-1.456.33-1.644.587-.329.447-.117 1.762.164 3.594.071.447.141.963.235 1.504a.822.822 0 0 1-.704.94c-.024-.024-.047-.024-.094-.024Zm-19.191-4.675a.847.847 0 0 1-.799-.61c-1.456-5.215-2.443-20.976-2.231-27.53a.827.827 0 0 1 .822-.799h.023a.85.85 0 0 1 .799.846c-.235 7.094.846 22.291 2.185 27.036a.824.824 0 0 1-.564 1.01c-.094.024-.165.047-.235.047Zm8.738-.281a.832.832 0 0 1-.822-.823c0-3.242-1.128-22.761-1.926-27.6a.822.822 0 0 1 1.621-.258c.845 5.05 1.949 24.523 1.949 27.882 0 .422-.376.798-.822.798Z"/>
  <path fill="#202D37" d="M178.185 78.156a.817.817 0 0 1-.822-.729c-.353-3.077-.541-4.627.281-5.567.729-.845 1.903-.869 4.017-.94l.658-.023c3.641-.117 5.496-.07 7.141-.023.493.023.963.023 1.432.023.846 0 1.48.259 1.926.775.893 1.034.658 2.82.353 5.098a.804.804 0 0 1-.916.704.804.804 0 0 1-.705-.916c.211-1.574.446-3.359.024-3.829-.118-.117-.353-.187-.705-.187-.493 0-.963-.024-1.456-.024-1.621-.047-3.453-.094-7.047.024l-.658.023c-1.433.047-2.56.07-2.819.376-.352.4-.141 2.208.118 4.299a.838.838 0 0 1-.728.916h-.094Z"/>
  <path fill="#202D37" d="M173.91 83.253a.817.817 0 0 1-.822-.728c-.306-2.725-.376-4.087.376-4.98.563-.681 1.432-.846 2.56-.916 2.466-.141 55.176-2.584 57.173-2.63.775 0 1.386.21 1.809.657.845.892.798 2.49.634 4.65a.8.8 0 0 1-.869.752.799.799 0 0 1-.752-.869c.071-1.033.211-2.96-.188-3.406-.094-.094-.282-.14-.564-.14-1.996.023-54.636 2.466-57.102 2.607-.799.047-1.245.164-1.409.329-.353.399-.188 1.996 0 3.734a.838.838 0 0 1-.729.916c-.047 0-.07.024-.117.024Z"/>
  <path fill="#202D37" d="M173.299 89.806c-1.503 0-1.762-.07-1.926-.117-2.114-.587-2.161-3.218-2.208-5.144v-.305c-.071-2.373 2.349-2.514 5.684-2.702.587-.047 1.222-.07 1.903-.117 1.973-.141 13.201-.658 25.063-1.198 14.963-.681 31.922-1.457 33.425-1.644 2.044-.235 3.383-.259 4.275.446.494.376.775.963.869 1.715l.024.282c.211 1.644.54 4.392-1.973 4.72-.963.118-17.241 1.34-33.073 2.397-21.305 1.386-29.103 1.668-32.063 1.668Zm-2.49-5.59v.329c.024 1.48.071 3.312 1.01 3.594.564.14 4.956.235 33.613-1.668 16.631-1.104 31.993-2.255 32.815-2.372.681-.094.822-.776.564-2.89l-.024-.282c-.047-.446-.188-.563-.258-.61-.47-.353-1.879-.235-3.054-.094-1.574.188-17.828.94-33.543 1.644-11.862.54-23.066 1.057-25.016 1.198-.681.047-1.339.094-1.926.118-3.312.187-4.204.352-4.181 1.033ZM47.678 248.171a.839.839 0 0 1-.634-.282c-3.5-4.063-5.59-8.714-6.013-13.459-.447-4.862.892-9.513 3.922-13.436-1.714-2.396-8.338-12.778-11.674-34.482-4.792-31.076.94-41.13 1.198-41.553a.811.811 0 0 1 1.128-.282.81.81 0 0 1 .282 1.128c-.047.094-5.661 10.124-.987 40.449 3.711 24.006 11.65 34.153 11.745 34.247a.845.845 0 0 1 0 1.033c-5.943 7.259-5.285 17.195 1.667 25.275a.796.796 0 0 1-.094 1.151.827.827 0 0 1-.54.211Zm13.272-26.707a.818.818 0 0 1-.682-.376.802.802 0 0 1 .235-1.127c7.07-4.604 21.775-7.846 38.358-8.433 17.077-.611 31.805 1.668 39.439 6.084a.837.837 0 0 1 .305 1.127c-.211.4-.728.517-1.127.306-7.376-4.275-21.775-6.46-38.546-5.873-16.302.588-30.7 3.712-37.513 8.175-.164.07-.328.117-.47.117Zm14.727-78.454a.853.853 0 0 1-.798-.588c-.705-2.419.258-4.087.869-4.862l-6.413-12.99c-4.51-9.113-6.013-12.12-6.483-13.107-7 .376-11.157-.375-13.107-2.348-.963-.964-1.41-2.255-1.292-3.782.118-1.504.728-2.678 1.832-3.5 2.044-1.504 5.779-1.644 11.04-.423a.8.8 0 0 1 .611.987.799.799 0 0 1-.986.61c-4.722-1.104-8.08-1.057-9.702.141-.704.517-1.08 1.269-1.15 2.302-.071 1.057.187 1.879.822 2.514 1.62 1.644 5.66 2.231 12.402 1.832.329-.024.634.164.799.469.094.188 12.848 25.933 13.412 27.06 0 .024.023.024.023.024a.855.855 0 0 1-.047.822.889.889 0 0 1-.305.282c-.352.399-1.245 1.597-.681 3.5.117.446-.117.892-.564 1.01-.14.023-.211.047-.282.047Z"/>
  <path fill="#202D37" d="M69.1 79.659c4.487-9.866 11.487-3.758 8.738 1.809-2.748 5.567-12.496 7.986-12.496 7.986 2.255 7.117-.752 17.147-4.298 15.174-2.82-1.55-5.661-7.281-4.675-11.11C59.047 82.97 65.79 73.904 69.1 79.659Z"/>
  <path fill="#202D37" d="M61.96 105.709c-.447 0-.87-.118-1.316-.353-3.147-1.738-6.177-7.775-5.073-12.05 1.926-7.54 6.389-15.667 10.546-16.23.799-.118 1.88.023 2.866 1.01 1.997-3.642 4.205-4.37 5.403-4.487 1.526-.141 3.006.61 3.946 1.996 1.198 1.762 1.292 4.134.282 6.225-2.443 4.91-9.725 7.47-12.215 8.198 1.48 5.802-.094 12.919-2.63 14.986-.588.47-1.199.705-1.81.705Zm4.627-27.013c-.117 0-.188.023-.258.023-2.678.376-7 6.484-9.161 15.01-.87 3.406 1.762 8.785 4.298 10.194.306.165.705.282 1.269-.164 1.973-1.621 3.594-8.55 1.856-14.047a.815.815 0 0 1 .07-.657c.117-.188.305-.353.517-.4.094-.023 9.419-2.419 11.956-7.563.916-1.856.517-3.57-.165-4.58-.61-.893-1.503-1.363-2.442-1.269-1.645.14-3.336 1.88-4.651 4.745a.77.77 0 0 1-.705.47.825.825 0 0 1-.752-.4c-.728-1.198-1.433-1.362-1.832-1.362Zm10.383 26.308a12.67 12.67 0 0 1-6.483-1.856c-.376-.235-.517-.751-.259-1.127.235-.376.752-.517 1.128-.259 2.96 1.833 6.107 1.739 6.882 1.48a.818.818 0 0 1 1.034.541.818.818 0 0 1-.54 1.033c-.376.094-.987.188-1.762.188Zm-18.04 2.513a.72.72 0 0 1-.47-.164c-.493-.235-3.383-1.01-5.262-.564a.799.799 0 0 1-.986-.611.8.8 0 0 1 .61-.986c2.396-.587 6.155.352 6.695.916a.822.822 0 0 1-.587 1.409Z"/>
  <path fill="#202D37" d="M105.462 126.45a.807.807 0 0 1-.728-.447c-1.175-2.255-14.728-31.24-15.292-32.462a.827.827 0 0 1 .141-.916c4.628-4.98 9.537-10.617 10.711-12.426-2.16-.376-10.453.118-22.315 2.09a.822.822 0 0 1-.94-.68.822.822 0 0 1 .682-.94c5.614-.94 11.157-1.62 15.62-1.973 7.353-.587 8.128.094 8.457.376.258.211.399.493.399.822 0 .47 0 1.104-5.778 7.68-2.162 2.467-4.37 4.863-5.215 5.803 1.856 3.946 13.953 29.855 15.033 31.898a.82.82 0 0 1-.352 1.104c-.165.024-.282.071-.423.071Z"/>
  <path fill="#202D37" d="M113.519 138.241a.758.758 0 0 1-.611-.282c-2.161-2.489-3.594-5.449-4.721-7.798-.799-1.668-1.88-3.923-2.42-3.758-.423.141-1.386.493-2.725.986-6.46 2.373-21.469 7.94-27.6 8.386-.446.023-.845-.305-.869-.752-.023-.446.306-.845.752-.869 5.872-.423 20.741-5.919 27.107-8.268 1.362-.493 2.325-.869 2.795-1.01 1.903-.634 3.03 1.668 4.439 4.604 1.104 2.278 2.467 5.12 4.487 7.446a.815.815 0 0 1-.071 1.151c-.187.094-.375.164-.563.164Zm-9.537-14.868c-.376 0-.728-.259-.799-.634-.728-3.265.916-7.423 3.97-10.124 2.325-2.044 5.05-2.866 7.657-2.326.165-1.621.682-4.604 2.537-5.59.071-1.457.376-4.839 1.386-5.966.306-.33.822-.376 1.151-.071.329.305.376.822.071 1.151-.517.564-.916 3.289-.987 5.45a.825.825 0 0 1-.611.751c-1.432.399-1.949 3.758-1.973 5.309a.811.811 0 0 1-.352.657.845.845 0 0 1-.752.094c-3.171-1.127-5.778.611-7.047 1.715-2.583 2.279-4.04 5.872-3.452 8.527a.832.832 0 0 1-.635.986c-.047.071-.094.071-.164.071Z"/>
  <path fill="#202D37" d="M127.847 161.167a.84.84 0 0 1-.775-1.104c.094-.235 8.292-24.006 11.933-44.489 3.735-21.046-2.561-25.98-9.232-28.023-6.671-2.043-26.449 8.832-33.895 12.943-.657.352-1.245.681-1.761.963a.813.813 0 0 1-1.104-.329.812.812 0 0 1 .328-1.104c.517-.282 1.105-.587 1.739-.963 13.764-7.587 28.704-15.057 35.187-13.084 4.768 1.457 7.822 3.994 9.63 7.987 2.232 4.933 2.467 12.097.728 21.868-3.664 20.601-11.909 44.513-11.979 44.748-.141.375-.47.587-.799.587ZM93.13 144.443c-2.772 0-5.45-.329-7.54-.917a.788.788 0 0 1-.564-1.01.789.789 0 0 1 1.01-.563c6.013 1.667 15.738.916 18.838-2.514.306-.329.823-.375 1.151-.07.329.305.376.822.071 1.151-2.513 2.795-7.869 3.923-12.966 3.923Z"/>
  <path fill="#202D37" d="M156.786 208.099a.827.827 0 0 1-.705-.4c-.258-.423-26.026-42.539-36.408-58.817-.235-.376-.141-.893.258-1.128.376-.234.893-.14 1.128.259 10.405 16.301 36.173 58.418 36.432 58.841a.816.816 0 0 1-.282 1.127.952.952 0 0 1-.423.118ZM85.214 214.3a.804.804 0 0 1-.775-.564c-.118-.352-11.862-34.388-15.973-45.311a.816.816 0 0 1 .47-1.057.816.816 0 0 1 1.057.47c4.11 10.946 15.879 45.005 15.996 45.358a.84.84 0 0 1-.775 1.104Zm-11.768-82.471a.773.773 0 0 1-.446-.141c-6.648-4.393-13.483-7.141-16.56-7.493-1.997-.235-4.205-1.879-6.319-3.453-1.644-1.222-3.335-2.49-4.416-2.631-2.42-.329-3.335-.047-3.359-.047-.4.164-.845-.047-1.033-.446-1.856-4.252-7.564-3.782-7.634-3.759a.817.817 0 0 1-.893-.751.818.818 0 0 1 .752-.893c.282-.023 6.436-.517 8.996 4.158.634-.071 1.715-.118 3.383.117 1.503.212 3.288 1.527 5.167 2.96 1.856 1.386 3.993 2.983 5.52 3.147 3.336.376 10.359 3.172 17.288 7.752a.83.83 0 0 1 .235 1.151.87.87 0 0 1-.68.329Z"/>
  <path fill="#202D37" d="M71.167 174.791a.824.824 0 0 1-.493-.165 344.66 344.66 0 0 0-6.013-4.322c-15.15-10.781-38.03-27.06-44.489-45.875-3.64-10.593 1.62-19.449 8.668-22.737 5.073-2.373 10.358-.681 15.48.939 1.76.564 3.428 1.081 5.073 1.457.446.094.728.54.634.986a.833.833 0 0 1-.987.635c-1.714-.376-3.5-.94-5.214-1.504-4.816-1.527-9.795-3.1-14.282-1.01-6.389 2.983-11.134 11.04-7.822 20.718 6.295 18.321 28.916 34.412 43.878 45.076 2.161 1.55 4.205 3.006 6.037 4.345.376.259.446.775.188 1.151-.14.188-.4.306-.658.306Z"/>
  <path fill="#FFFEF2" d="M241.136 89.994s-8.949 5.966-18.415 6.178c-1.41 30.395 14.868 33.942 14.868 33.942s16.56.376 20.507-29.714c-9.255-2.443-16.96-10.406-16.96-10.406Z"/>
  <path fill="#202D37" d="M237.613 130.913h-.047c-.047 0-.094 0-.165-.024-.188-.047-4.392-1.01-8.409-5.849-3.641-4.392-7.822-12.966-7.094-28.939.024-.422.376-.775.799-.775 9.114-.188 17.899-5.966 17.969-6.036a.854.854 0 0 1 1.057.117c.071.07 7.681 7.822 16.56 10.17.4.095.658.494.611.893-1.668 12.708-5.708 21.681-12.026 26.684-4.581 3.641-8.715 3.759-9.255 3.759Zm-14.117-33.966c-.564 14.963 3.335 22.949 6.741 27.06 3.383 4.063 6.859 5.12 7.423 5.261.564-.023 4.251-.235 8.268-3.476 3.993-3.218 9.161-10.124 11.228-24.828-7.822-2.302-14.352-8.222-16.137-9.96-2.091 1.316-9.466 5.52-17.523 5.943Z"/>
  <path fill="#FBD931" d="M229.861 109.42c-.094.869 5.638 6.906 7.118 7.681 1.456.799 14.281-9.56 14.375-10.946.094-1.386-2.137-3.054-2.819-2.513-.681.54-9.513 8.714-10.64 8.268-1.128-.447-3.759-5.191-4.604-5.379-.822-.141-3.242 1.292-3.43 2.889Z"/>
  <path fill="#FBD931" d="M237.19 117.524a.8.8 0 0 1-.376-.094c-1.245-.681-7.423-6.835-7.305-8.033.094-.823.705-1.692 1.668-2.396.61-.447 1.573-.916 2.184-.799.517.117 1.175 1.01 2.326 2.607.822 1.128 1.832 2.561 2.302 2.772.704 0 3.805-2.443 9.207-7.258.564-.517.94-.846 1.081-.94.329-.258.869-.235 1.456.071.987.517 1.997 1.691 1.926 2.725-.094 1.479-9.043 8.62-12.637 10.617-.939.563-1.503.728-1.832.728Zm-6.976-8.08c.141.892 5.496 6.577 6.929 7.352 0 0 .352.094 1.973-.846 4.463-2.631 11.698-8.902 11.886-9.818.047-.729-.776-1.645-1.551-2.067-.399-.212-.634-.212-.704-.141-.118.094-.494.446-1.034.916-7.352 6.53-9.255 7.681-9.936 7.399-.634-.259-1.456-1.363-2.631-3.03-.634-.893-1.597-2.232-1.902-2.326-.212-.047-.869.141-1.645.681-.798.564-1.291 1.269-1.385 1.88Z"/>
  <path fill="#202D37" d="M245.435 5.316v12.848c0 .07-.024.141-.071.188a.266.266 0 0 1-.188.07h-3.241a.266.266 0 0 1-.188-.07.267.267 0 0 1-.071-.188V8.44h-.963a.268.268 0 0 1-.188-.07.266.266 0 0 1-.07-.189V5.316c0-.07.023-.141.07-.188a.268.268 0 0 1 .188-.07h4.463c.071 0 .141.023.188.07a.267.267 0 0 1 .071.188Z"/>
  <path fill="#202D37" d="M245.176 18.799h-3.241a.565.565 0 0 1-.423-.165.64.64 0 0 1-.188-.446V8.816h-.611a.6.6 0 0 1-.446-.188.564.564 0 0 1-.164-.423V5.339c0-.164.07-.329.187-.446a.604.604 0 0 1 .447-.188h4.463c.164 0 .305.07.422.188a.6.6 0 0 1 .188.446v12.849a.64.64 0 0 1-.188.446c-.14.094-.281.165-.446.165Zm-3.147-.705h3.053V5.41h-4.298v2.7h.869a.36.36 0 0 1 .352.353v9.63h.024Zm3.053-12.778h.353-.353ZM297.816 179.7c.305 1.362.235 2.537-.165 3.5-.399.986-1.198 1.785-2.419 2.443l.775 3.57a.402.402 0 0 1-.047.282c-.047.094-.141.141-.235.164l-4.698 1.034a.407.407 0 0 1-.282-.047c-.093-.047-.14-.141-.164-.235l-.681-3.171c-.893.164-1.691.258-2.443.329a.354.354 0 0 1-.258-.094c-.071-.071-.141-.141-.165-.258l-.47-3.876c-.023-.118.024-.212.094-.306.071-.094.188-.117.306-.117.305 0 .61 0 .916-.023.305-.024.728-.047 1.221-.094.493-.047.963-.118 1.363-.212a3.524 3.524 0 0 0 1.127-.423c.282-.188.47-.399.564-.61.094-.212.141-.4.164-.564a1.243 1.243 0 0 0 0-.423c-.023-.141-.094-.258-.164-.399a5.153 5.153 0 0 0-.423-.517c-.211-.211-.517-.376-.916-.517-.423-.141-.916-.211-1.456-.235a5.984 5.984 0 0 1-1.903-.329 7.391 7.391 0 0 1-1.832-.916c-.587-.399-1.104-.939-1.574-1.644a7.692 7.692 0 0 1-.987-2.372c-.281-1.245-.187-2.373.259-3.359.446-.987 1.221-1.809 2.325-2.49l-.798-3.664a.468.468 0 0 1 .047-.306c.047-.094.141-.141.235-.164l4.697-1.034a.474.474 0 0 1 .306.047c.094.071.164.141.164.259l.681 3.171a47.128 47.128 0 0 1 2.537-.353c.094 0 .188.024.282.094.094.071.141.141.141.259l.47 3.875a.476.476 0 0 1-.094.306.336.336 0 0 1-.282.141c-1.362 0-2.584.117-3.664.329-.447.093-.822.211-1.104.422-.282.188-.494.4-.588.635a2.674 2.674 0 0 0-.164.563 1.093 1.093 0 0 0 .164.822c.094.141.235.306.447.517.211.188.516.376.939.517.423.141.916.211 1.457.235a6.78 6.78 0 0 1 1.902.352 7.461 7.461 0 0 1 1.832.916c.588.4 1.104.963 1.551 1.645.493.657.822 1.432 1.01 2.325Z"/>
  <path fill="#202D37" d="M290.934 191.045c-.141 0-.259-.047-.4-.117a.76.76 0 0 1-.329-.47l-.61-2.842c-.776.117-1.48.211-2.138.282-.188.023-.352-.047-.517-.165a.907.907 0 0 1-.282-.446v-.023l-.469-3.876a.742.742 0 0 1 .188-.587c.141-.165.328-.235.563-.235.282 0 .588 0 .916-.024.306-.023.705-.047 1.198-.094.494-.047.94-.117 1.339-.211a2.683 2.683 0 0 0 1.01-.376c.235-.141.376-.305.447-.446.07-.188.117-.353.141-.47a.68.68 0 0 0 0-.305 1.188 1.188 0 0 0-.141-.306 3.047 3.047 0 0 0-.376-.446c-.165-.165-.423-.305-.799-.423a5.527 5.527 0 0 0-1.362-.211c-.681 0-1.339-.141-2.02-.353a8.185 8.185 0 0 1-1.926-.963c-.635-.422-1.198-1.01-1.668-1.738a7.862 7.862 0 0 1-1.034-2.49c-.282-1.315-.188-2.513.282-3.57.446-.987 1.198-1.832 2.255-2.513l-.752-3.406a.73.73 0 0 1 .094-.541.662.662 0 0 1 .47-.352l4.698-1.034a.79.79 0 0 1 .564.094.832.832 0 0 1 .329.47l.61 2.842c.752-.117 1.48-.211 2.232-.305.188-.023.352.047.517.141a.743.743 0 0 1 .305.517l.446 3.875a.718.718 0 0 1-.188.564.748.748 0 0 1-.563.259c-1.339 0-2.537.117-3.571.328-.399.071-.728.188-.986.353-.235.141-.376.305-.447.47-.07.187-.141.352-.141.469a.685.685 0 0 0 0 .306c.024.047.047.141.118.282.047.07.141.211.376.446.164.164.446.305.798.423.376.117.846.188 1.363.211a6.67 6.67 0 0 1 1.996.376 7.36 7.36 0 0 1 1.926.963c.635.423 1.175 1.01 1.668 1.738.47.728.822 1.55 1.01 2.467.306 1.432.259 2.677-.188 3.711-.399.986-1.198 1.832-2.325 2.49l.728 3.312a.727.727 0 0 1-.094.54.758.758 0 0 1-.47.329l-4.698 1.033c.024.047-.023.047-.093.047Zm-1.034-4.157c.164 0 .305.117.352.282l.682 3.171.023.023 4.721-1.033.024-.024-.775-3.57a.366.366 0 0 1 .164-.376c1.128-.611 1.879-1.386 2.255-2.279.376-.916.423-2.02.141-3.288-.188-.846-.493-1.597-.916-2.232-.423-.657-.916-1.174-1.456-1.55-.564-.376-1.151-.681-1.762-.869a7.013 7.013 0 0 0-1.809-.329c-.587-.023-1.104-.094-1.574-.258-.469-.165-.822-.352-1.08-.587-.235-.235-.399-.423-.493-.588a1.713 1.713 0 0 1-.212-.493 1.366 1.366 0 0 1-.023-.54c.023-.188.094-.399.188-.658.117-.282.352-.54.704-.775a3.596 3.596 0 0 1 1.222-.47c1.08-.211 2.325-.329 3.711-.329.024-.023.024-.047.024-.047l-.447-3.852c-.023-.023-.023-.023-.047-.023-.822.094-1.667.211-2.49.352a.362.362 0 0 1-.399-.282l-.681-3.171s0-.023-.024-.023c-.023-.024-.023-.024-.023 0l-4.698 1.033c-.023.024-.023.024-.023.047l.798 3.664c.024.141-.023.306-.164.376-1.034.634-1.785 1.433-2.185 2.349-.422.916-.493 1.973-.235 3.124.188.846.494 1.598.917 2.255.422.658.916 1.175 1.479 1.551a8.142 8.142 0 0 0 1.739.892 5.989 5.989 0 0 0 1.808.329c.587.023 1.128.094 1.574.258.47.165.822.353 1.057.588.211.234.376.422.493.587.094.188.188.352.212.517.023.164.047.328.023.54-.023.188-.094.399-.188.658-.117.281-.352.54-.704.775a3.525 3.525 0 0 1-1.245.469c-.423.094-.893.165-1.41.212-.516.047-.916.07-1.245.094-.328.023-.634.023-.939.023h-.024v.024l.447 3.852c0 .024.023.024.023.047.728-.047 1.55-.164 2.42-.305.023-.141.046-.141.07-.141Z"/>
  <path fill="#FFFEF2" d="M269.323 218.27c.987-1.692 39.462-4.628 40.966-3.312 1.503 1.315 1.902 8.268-.493 8.714-2.42.423-38.734 3.688-39.721 2.795-.986-.892-1.48-6.953-.752-8.197Z"/>
  <path fill="#202D37" d="M272.072 227.454c-2.185 0-2.396-.188-2.56-.353-1.316-1.221-1.762-7.728-.917-9.231.259-.423.729-.822 4.229-1.386 4.58-.751 13.412-1.621 21.962-2.184 14.869-.963 15.714-.212 16.043.047 1.433 1.245 1.856 5.379 1.198 7.775-.493 1.738-1.409 2.255-2.09 2.372-1.245.235-10.946 1.151-20.483 1.903-10.053.798-14.939 1.057-17.382 1.057Zm-1.527-1.691c1.151.164 6.765-.047 19.426-1.057 9.208-.729 18.509-1.621 19.66-1.833.306-.047.611-.493.799-1.198.587-2.137.023-5.308-.634-6.036-1.151-.353-8.832-.212-19.99.657-11.486.893-18.674 1.95-19.825 2.49-.446 1.151-.047 5.966.564 6.977Z"/>
  <path fill="#FFFEF2" d="M267.445 210.001c.963-1.691 39.438-4.862 40.965-3.547 1.527 1.316 2.208 7.258-.188 7.705-2.419.446-38.969 4.933-39.955 4.04-.987-.893-1.527-6.953-.822-8.198Z"/>
  <path fill="#202D37" d="M269.488 219.139c-1.433 0-1.621-.165-1.785-.306-1.339-1.221-1.809-7.728-.963-9.207.258-.447.705-.823 4.204-1.41 4.581-.775 13.389-1.715 21.939-2.302 14.869-1.057 15.715-.305 16.044-.047 1.339 1.151 2.067 4.675 1.433 6.953-.447 1.644-1.457 2.067-2.021 2.185-1.244.234-11.157 1.479-20.576 2.536-11.369 1.222-16.184 1.598-18.275 1.598Zm-.752-1.645c3.195.353 35.892-3.5 39.322-4.134.399-.07.634-.587.751-.986.47-1.715-.117-4.463-.869-5.215-1.151-.352-8.832-.164-19.989.775-11.487.963-18.674 2.044-19.825 2.608-.447 1.127-.024 5.895.61 6.952Z"/>
  <path fill="#FFFEF2" d="M269.887 200.699c.963-1.691 40.354-3.617 41.881-2.302 1.527 1.316 1.785 7.305-.634 7.752-2.419.446-39.462 3.641-40.449 2.748-.963-.893-1.503-6.953-.798-8.198Z"/>
  <path fill="#202D37" d="M272.776 209.86c-2.231 0-2.466-.188-2.631-.352-1.338-1.222-1.808-7.728-.963-9.208.259-.446.776-.728 2.866-1.08 4.557-.776 14.634-1.457 22.62-1.786 4.463-.188 8.574-.281 11.557-.258 5.356.024 5.755.376 6.06.634 1.363 1.198 1.762 4.581 1.175 6.718-.376 1.386-1.151 2.255-2.208 2.443-1.339.258-11.674 1.175-20.835 1.879-10.171.775-15.151 1.01-17.641 1.01Zm-1.597-1.691c1.151.164 6.859-.023 19.801-1.034 9.443-.728 18.909-1.62 20.013-1.808.517-.094.799-.846.916-1.269.494-1.785.047-4.298-.634-5.003-1.127-.376-8.996-.423-20.435.165-11.886.61-19.097 1.456-20.295 1.996-.423 1.175.023 5.943.634 6.953Z"/>
  <path fill="#6B6B6B" d="M31.748 286.171v-9.87h1.162v8.862h4.984v1.008h-6.146Zm10.318.126c-.672 0-1.26-.144-1.764-.434a2.996 2.996 0 0 1-1.148-1.26c-.27-.55-.406-1.199-.406-1.946 0-.756.136-1.404.406-1.946a2.92 2.92 0 0 1 1.148-1.246c.504-.298 1.092-.448 1.764-.448.681 0 1.27.15 1.764.448.504.29.892.705 1.162 1.246.28.542.42 1.19.42 1.946 0 .747-.14 1.396-.42 1.946a2.97 2.97 0 0 1-1.162 1.26c-.494.29-1.082.434-1.764.434Zm0-.924c.672 0 1.204-.228 1.596-.686.392-.466.588-1.143.588-2.03 0-.896-.2-1.572-.602-2.03-.392-.466-.92-.7-1.582-.7-.663 0-1.19.234-1.582.7-.392.458-.588 1.134-.588 2.03 0 .887.196 1.564.588 2.03.392.458.92.686 1.582.686Zm5.086.798v-5.334c0-.28-.01-.564-.028-.854a11.9 11.9 0 0 0-.056-.84h1.092l.14 1.708-.196.014c.094-.42.257-.765.49-1.036a2.19 2.19 0 0 1 .826-.602c.318-.14.649-.21.994-.21.14 0 .262.005.364.014.112.01.215.033.308.07l-.014 1.008a1.713 1.713 0 0 0-.392-.084 2.489 2.489 0 0 0-.392-.028c-.41 0-.77.098-1.078.294a1.976 1.976 0 0 0-.686.756 2.22 2.22 0 0 0-.224.98v4.144h-1.148Zm8.154.126c-1.101 0-1.97-.317-2.604-.952-.634-.644-.952-1.535-.952-2.674 0-.737.14-1.376.42-1.918.28-.55.672-.975 1.176-1.274.504-.308 1.083-.462 1.736-.462.644 0 1.185.136 1.624.406.439.271.775.658 1.008 1.162.233.495.35 1.083.35 1.764v.42h-5.446v-.714h4.704l-.238.182c0-.746-.168-1.33-.504-1.75-.336-.42-.835-.63-1.498-.63-.7 0-1.246.248-1.638.742-.392.486-.588 1.144-.588 1.974v.126c0 .878.215 1.545.644 2.002.439.448 1.05.672 1.834.672.42 0 .812-.06 1.176-.182.373-.13.728-.34 1.064-.63l.392.798c-.308.299-.7.532-1.176.7a4.57 4.57 0 0 1-1.484.238Zm4.493-.126v-5.404c0-.261-.014-.527-.042-.798a21.36 21.36 0 0 0-.07-.826h1.092l.14 1.54h-.168c.187-.532.481-.942.882-1.232.411-.289.906-.434 1.484-.434.588 0 1.064.14 1.428.42.374.28.626.714.756 1.302h-.21a2.41 2.41 0 0 1 .938-1.26c.448-.308.971-.462 1.568-.462.775 0 1.358.224 1.75.672.392.439.588 1.134.588 2.086v4.396h-1.134v-4.326c0-.662-.116-1.143-.35-1.442-.233-.308-.606-.462-1.12-.462-.588 0-1.054.206-1.4.616-.336.402-.504.943-.504 1.624v3.99h-1.134v-4.326c0-.662-.116-1.143-.35-1.442-.233-.308-.606-.462-1.12-.462-.588 0-1.05.206-1.386.616-.336.402-.504.943-.504 1.624v3.99H59.8Zm15.942 0v-7.028h1.134v7.028H75.74Zm-.14-8.624v-1.274H77v1.274h-1.4Zm3.476 11.648v-8.428c0-.261-.014-.527-.042-.798-.019-.28-.042-.555-.07-.826h1.092l.154 1.666h-.168a2.25 2.25 0 0 1 .91-1.302c.457-.326 1.003-.49 1.638-.49.634 0 1.18.145 1.638.434.466.29.83.705 1.092 1.246.261.542.392 1.195.392 1.96 0 .756-.131 1.405-.392 1.946a2.908 2.908 0 0 1-1.078 1.26c-.467.29-1.018.434-1.652.434-.626 0-1.167-.158-1.624-.476a2.249 2.249 0 0 1-.91-1.302h.154v4.676h-1.134Zm3.29-3.822c.672 0 1.204-.228 1.596-.686.401-.466.602-1.143.602-2.03 0-.896-.201-1.572-.602-2.03-.392-.466-.924-.7-1.596-.7-.663 0-1.195.234-1.596.7-.392.458-.588 1.134-.588 2.03 0 .887.196 1.564.588 2.03.401.458.933.686 1.596.686Zm7.442.924c-.56 0-1.082-.074-1.568-.224-.485-.158-.886-.378-1.204-.658l.392-.798c.346.271.719.472 1.12.602.41.131.836.196 1.274.196.56 0 .98-.098 1.26-.294a.975.975 0 0 0 .434-.84.803.803 0 0 0-.28-.644c-.177-.168-.471-.298-.882-.392l-1.302-.266c-.597-.13-1.045-.35-1.344-.658-.298-.317-.448-.718-.448-1.204 0-.41.108-.77.322-1.078.215-.317.528-.564.938-.742.41-.186.892-.28 1.442-.28.514 0 .985.08 1.414.238.439.15.803.369 1.092.658l-.406.784a2.69 2.69 0 0 0-.966-.602 2.985 2.985 0 0 0-1.106-.21c-.55 0-.966.112-1.246.336-.27.215-.406.5-.406.854 0 .271.084.495.252.672.178.168.448.294.812.378l1.302.266c.635.14 1.106.36 1.414.658.318.29.476.682.476 1.176 0 .42-.116.789-.35 1.106-.233.308-.56.546-.98.714-.41.168-.896.252-1.456.252Zm7.085 0c-.83 0-1.46-.228-1.89-.686-.42-.457-.63-1.157-.63-2.1v-4.368h1.135v4.34c0 .644.13 1.12.391 1.428.262.299.668.448 1.218.448.617 0 1.111-.2 1.485-.602.373-.401.56-.938.56-1.61v-4.004h1.134v7.028h-1.106v-1.582h.181c-.195.542-.513.962-.951 1.26-.43.299-.939.448-1.527.448Zm5.603-.126v-5.404c0-.261-.014-.527-.042-.798-.019-.28-.042-.555-.07-.826h1.092l.14 1.54h-.168c.186-.532.48-.942.882-1.232.41-.289.905-.434 1.484-.434.588 0 1.064.14 1.428.42.373.28.625.714.756 1.302h-.21c.177-.532.49-.952.938-1.26.448-.308.97-.462 1.568-.462.774 0 1.358.224 1.75.672.392.439.588 1.134.588 2.086v4.396h-1.134v-4.326c0-.662-.117-1.143-.35-1.442-.234-.308-.607-.462-1.12-.462-.588 0-1.055.206-1.4.616-.336.402-.504.943-.504 1.624v3.99h-1.134v-4.326c0-.662-.117-1.143-.35-1.442-.234-.308-.607-.462-1.12-.462-.588 0-1.05.206-1.386.616-.336.402-.504.943-.504 1.624v3.99h-1.134Zm18.601.126c-.616 0-1.157-.144-1.624-.434a2.995 2.995 0 0 1-1.092-1.26c-.252-.541-.378-1.19-.378-1.946 0-.765.126-1.418.378-1.96.261-.541.625-.956 1.092-1.246.467-.289 1.008-.434 1.624-.434.635 0 1.181.159 1.638.476.467.318.779.747.938 1.288h-.168v-4.914h1.134v10.304h-1.12v-1.68h.154a2.289 2.289 0 0 1-.924 1.33c-.467.318-1.017.476-1.652.476Zm.238-.924c.663 0 1.195-.228 1.596-.686.401-.466.602-1.143.602-2.03 0-.896-.201-1.572-.602-2.03-.401-.466-.933-.7-1.596-.7s-1.195.234-1.596.7c-.392.458-.588 1.134-.588 2.03 0 .887.196 1.564.588 2.03.401.458.933.686 1.596.686Zm8.381.924c-.672 0-1.26-.144-1.764-.434a2.99 2.99 0 0 1-1.148-1.26c-.271-.55-.406-1.199-.406-1.946 0-.756.135-1.404.406-1.946.27-.541.653-.956 1.148-1.246.504-.298 1.092-.448 1.764-.448.681 0 1.269.15 1.764.448.504.29.891.705 1.162 1.246.28.542.42 1.19.42 1.946 0 .747-.14 1.396-.42 1.946a2.971 2.971 0 0 1-1.162 1.26c-.495.29-1.083.434-1.764.434Zm0-.924c.672 0 1.204-.228 1.596-.686.392-.466.588-1.143.588-2.03 0-.896-.201-1.572-.602-2.03-.392-.466-.92-.7-1.582-.7-.663 0-1.19.234-1.582.7-.392.458-.588 1.134-.588 2.03 0 .887.196 1.564.588 2.03.392.458.919.686 1.582.686Zm5.114.798v-10.304h1.134v10.304h-1.134Zm6.22.126c-.672 0-1.26-.144-1.764-.434a2.99 2.99 0 0 1-1.148-1.26c-.271-.55-.406-1.199-.406-1.946 0-.756.135-1.404.406-1.946.27-.541.653-.956 1.148-1.246.504-.298 1.092-.448 1.764-.448.681 0 1.269.15 1.764.448.504.29.891.705 1.162 1.246.28.542.42 1.19.42 1.946 0 .747-.14 1.396-.42 1.946a2.971 2.971 0 0 1-1.162 1.26c-.495.29-1.083.434-1.764.434Zm0-.924c.672 0 1.204-.228 1.596-.686.392-.466.588-1.143.588-2.03 0-.896-.201-1.572-.602-2.03-.392-.466-.92-.7-1.582-.7-.663 0-1.19.234-1.582.7-.392.458-.588 1.134-.588 2.03 0 .887.196 1.564.588 2.03.392.458.919.686 1.582.686Zm5.086.798v-5.334c0-.28-.01-.564-.028-.854-.01-.289-.028-.569-.056-.84h1.092l.14 1.708-.196.014c.093-.42.256-.765.49-1.036.233-.27.508-.471.826-.602.317-.14.648-.21.994-.21.14 0 .261.005.364.014.112.01.214.033.308.07l-.014 1.008a1.718 1.718 0 0 0-.392-.084 2.493 2.493 0 0 0-.392-.028c-.411 0-.77.098-1.078.294a1.967 1.967 0 0 0-.686.756 2.21 2.21 0 0 0-.224.98v4.144h-1.148Zm11.102.126c-.56 0-1.083-.074-1.568-.224-.485-.158-.887-.378-1.204-.658l.392-.798c.345.271.719.472 1.12.602.411.131.835.196 1.274.196.56 0 .98-.098 1.26-.294a.976.976 0 0 0 .434-.84c0-.27-.093-.485-.28-.644-.177-.168-.471-.298-.882-.392l-1.302-.266c-.597-.13-1.045-.35-1.344-.658-.299-.317-.448-.718-.448-1.204 0-.41.107-.77.322-1.078.215-.317.527-.564.938-.742.411-.186.891-.28 1.442-.28.513 0 .985.08 1.414.238.439.15.803.369 1.092.658l-.406.784a2.69 2.69 0 0 0-.966-.602 2.986 2.986 0 0 0-1.106-.21c-.551 0-.966.112-1.246.336-.271.215-.406.5-.406.854 0 .271.084.495.252.672.177.168.448.294.812.378l1.302.266c.635.14 1.106.36 1.414.658.317.29.476.682.476 1.176 0 .42-.117.789-.35 1.106-.233.308-.56.546-.98.714-.411.168-.896.252-1.456.252Zm4.607-.126v-7.028h1.134v7.028h-1.134Zm-.14-8.624v-1.274h1.4v1.274h-1.4Zm5.968 8.75c-.69 0-1.218-.196-1.582-.588-.364-.401-.546-1.003-.546-1.806v-3.878h-1.372v-.882h1.372v-1.918l1.134-.322v2.24h2.016v.882h-2.016v3.752c0 .56.094.962.28 1.204.196.234.486.35.868.35.178 0 .336-.014.476-.042.14-.037.266-.079.378-.126v.952c-.13.056-.289.098-.476.126a2.524 2.524 0 0 1-.532.056Zm8.727 0c-.625 0-1.171-.144-1.638-.434a2.995 2.995 0 0 1-1.092-1.26c-.252-.541-.378-1.19-.378-1.946 0-.765.126-1.418.378-1.96.261-.541.625-.956 1.092-1.246.467-.289 1.013-.434 1.638-.434.635 0 1.181.164 1.638.49.467.318.775.752.924 1.302h-.168l.154-1.666h1.092l-.084.826c-.019.271-.028.537-.028.798v5.404h-1.134v-1.652h.154a2.226 2.226 0 0 1-.924 1.302c-.467.318-1.008.476-1.624.476Zm.224-.924c.672 0 1.204-.228 1.596-.686.392-.466.588-1.143.588-2.03 0-.896-.196-1.572-.588-2.03-.392-.466-.924-.7-1.596-.7-.663 0-1.195.234-1.596.7-.392.458-.588 1.134-.588 2.03 0 .887.196 1.564.588 2.03.401.458.933.686 1.596.686Zm5.497.798v-5.404c0-.261-.014-.527-.042-.798-.019-.28-.042-.555-.07-.826h1.092l.14 1.54h-.168c.186-.532.48-.942.882-1.232.41-.289.905-.434 1.484-.434.588 0 1.064.14 1.428.42.373.28.625.714.756 1.302h-.21c.177-.532.49-.952.938-1.26.448-.308.97-.462 1.568-.462.774 0 1.358.224 1.75.672.392.439.588 1.134.588 2.086v4.396h-1.134v-4.326c0-.662-.117-1.143-.35-1.442-.234-.308-.607-.462-1.12-.462-.588 0-1.055.206-1.4.616-.336.402-.504.943-.504 1.624v3.99h-1.134v-4.326c0-.662-.117-1.143-.35-1.442-.234-.308-.607-.462-1.12-.462-.588 0-1.05.206-1.386.616-.336.402-.504.943-.504 1.624v3.99h-1.134Zm15.413.126c-1.102 0-1.97-.317-2.604-.952-.635-.644-.952-1.535-.952-2.674 0-.737.14-1.376.42-1.918.28-.55.672-.975 1.176-1.274.504-.308 1.082-.462 1.736-.462.644 0 1.185.136 1.624.406.438.271.774.658 1.008 1.162.233.495.35 1.083.35 1.764v.42h-5.446v-.714h4.704l-.238.182c0-.746-.168-1.33-.504-1.75-.336-.42-.836-.63-1.498-.63-.7 0-1.246.248-1.638.742-.392.486-.588 1.144-.588 1.974v.126c0 .878.214 1.545.644 2.002.438.448 1.05.672 1.834.672.42 0 .812-.06 1.176-.182.373-.13.728-.34 1.064-.63l.392.798c-.308.299-.7.532-1.176.7a4.574 4.574 0 0 1-1.484.238Zm6.985 0c-.691 0-1.218-.196-1.582-.588-.364-.401-.546-1.003-.546-1.806v-3.878h-1.372v-.882h1.372v-1.918l1.134-.322v2.24h2.016v.882h-2.016v3.752c0 .56.093.962.28 1.204.196.234.485.35.868.35.177 0 .336-.014.476-.042.14-.037.266-.079.378-.126v.952a1.95 1.95 0 0 1-.476.126 2.531 2.531 0 0 1-.532.056Zm2.958 1.47-.532-.406c.252-.261.415-.508.49-.742.084-.224.126-.452.126-.686l.252.238h-.924v-1.428h1.428v1.008c0 .374-.061.724-.182 1.05-.122.336-.341.658-.658.966Zm9.426-1.47c-.691 0-1.293-.149-1.806-.448a3.043 3.043 0 0 1-1.176-1.274c-.271-.55-.406-1.204-.406-1.96 0-.765.14-1.414.42-1.946.28-.541.672-.952 1.176-1.232.513-.28 1.11-.42 1.792-.42.448 0 .882.08 1.302.238.429.159.784.383 1.064.672l-.406.812a2.784 2.784 0 0 0-.924-.602 2.604 2.604 0 0 0-.966-.196c-.728 0-1.293.229-1.694.686-.402.458-.602 1.125-.602 2.002 0 .868.2 1.54.602 2.016.401.476.966.714 1.694.714.308 0 .625-.06.952-.182.336-.121.648-.322.938-.602l.406.798c-.29.299-.649.528-1.078.686a3.69 3.69 0 0 1-1.288.238Zm6.725 0c-.672 0-1.26-.144-1.764-.434a2.99 2.99 0 0 1-1.148-1.26c-.271-.55-.406-1.199-.406-1.946 0-.756.135-1.404.406-1.946.27-.541.653-.956 1.148-1.246.504-.298 1.092-.448 1.764-.448.681 0 1.269.15 1.764.448.504.29.891.705 1.162 1.246.28.542.42 1.19.42 1.946 0 .747-.14 1.396-.42 1.946a2.971 2.971 0 0 1-1.162 1.26c-.495.29-1.083.434-1.764.434Zm0-.924c.672 0 1.204-.228 1.596-.686.392-.466.588-1.143.588-2.03 0-.896-.201-1.572-.602-2.03-.392-.466-.92-.7-1.582-.7-.663 0-1.19.234-1.582.7-.392.458-.588 1.134-.588 2.03 0 .887.196 1.564.588 2.03.392.458.919.686 1.582.686Zm5.114.798v-5.404c0-.261-.014-.527-.042-.798-.019-.28-.042-.555-.07-.826h1.092l.14 1.54h-.168c.205-.541.532-.952.98-1.232.457-.289.984-.434 1.582-.434.83 0 1.456.224 1.876.672.429.439.644 1.134.644 2.086v4.396h-1.134v-4.326c0-.662-.136-1.143-.406-1.442-.262-.308-.672-.462-1.232-.462-.654 0-1.172.201-1.554.602-.383.402-.574.938-.574 1.61v4.018h-1.134Zm10.541.126c-.56 0-1.083-.074-1.568-.224-.485-.158-.887-.378-1.204-.658l.392-.798c.345.271.719.472 1.12.602.411.131.835.196 1.274.196.56 0 .98-.098 1.26-.294a.976.976 0 0 0 .434-.84c0-.27-.093-.485-.28-.644-.177-.168-.471-.298-.882-.392l-1.302-.266c-.597-.13-1.045-.35-1.344-.658-.299-.317-.448-.718-.448-1.204 0-.41.107-.77.322-1.078.215-.317.527-.564.938-.742.411-.186.891-.28 1.442-.28.513 0 .985.08 1.414.238.439.15.803.369 1.092.658l-.406.784a2.69 2.69 0 0 0-.966-.602 2.986 2.986 0 0 0-1.106-.21c-.551 0-.966.112-1.246.336-.271.215-.406.5-.406.854 0 .271.084.495.252.672.177.168.448.294.812.378l1.302.266c.635.14 1.106.36 1.414.658.317.29.476.682.476 1.176 0 .42-.117.789-.35 1.106-.233.308-.56.546-.98.714-.411.168-.896.252-1.456.252Zm7.729 0c-1.101 0-1.969-.317-2.604-.952-.635-.644-.952-1.535-.952-2.674 0-.737.14-1.376.42-1.918.28-.55.672-.975 1.176-1.274.504-.308 1.083-.462 1.736-.462.644 0 1.185.136 1.624.406.439.271.775.658 1.008 1.162.233.495.35 1.083.35 1.764v.42h-5.446v-.714h4.704l-.238.182c0-.746-.168-1.33-.504-1.75-.336-.42-.835-.63-1.498-.63-.7 0-1.246.248-1.638.742-.392.486-.588 1.144-.588 1.974v.126c0 .878.215 1.545.644 2.002.439.448 1.05.672 1.834.672.42 0 .812-.06 1.176-.182.373-.13.728-.34 1.064-.63l.392.798c-.308.299-.7.532-1.176.7a4.57 4.57 0 0 1-1.484.238Zm7.447 0c-.69 0-1.292-.149-1.806-.448a3.043 3.043 0 0 1-1.176-1.274c-.27-.55-.406-1.204-.406-1.96 0-.765.14-1.414.42-1.946.28-.541.672-.952 1.176-1.232.514-.28 1.111-.42 1.792-.42.448 0 .882.08 1.302.238.43.159.784.383 1.064.672l-.406.812a2.784 2.784 0 0 0-.924-.602 2.596 2.596 0 0 0-.966-.196c-.728 0-1.292.229-1.694.686-.401.458-.602 1.125-.602 2.002 0 .868.201 1.54.602 2.016.402.476.966.714 1.694.714.308 0 .626-.06.952-.182.336-.121.649-.322.938-.602l.406.798a2.83 2.83 0 0 1-1.078.686 3.682 3.682 0 0 1-1.288.238Zm6.47 0c-.691 0-1.218-.196-1.582-.588-.364-.401-.546-1.003-.546-1.806v-3.878h-1.372v-.882h1.372v-1.918l1.134-.322v2.24h2.016v.882h-2.016v3.752c0 .56.093.962.28 1.204.196.234.485.35.868.35.177 0 .336-.014.476-.042.14-.037.266-.079.378-.126v.952a1.95 1.95 0 0 1-.476.126 2.531 2.531 0 0 1-.532.056Zm5.456 0c-1.101 0-1.969-.317-2.604-.952-.634-.644-.952-1.535-.952-2.674 0-.737.14-1.376.42-1.918.28-.55.672-.975 1.176-1.274.504-.308 1.083-.462 1.736-.462.644 0 1.186.136 1.624.406.439.271.775.658 1.008 1.162.234.495.35 1.083.35 1.764v.42h-5.446v-.714h4.704l-.238.182c0-.746-.168-1.33-.504-1.75-.336-.42-.835-.63-1.498-.63-.7 0-1.246.248-1.638.742-.392.486-.588 1.144-.588 1.974v.126c0 .878.215 1.545.644 2.002.439.448 1.05.672 1.834.672.42 0 .812-.06 1.176-.182.374-.13.728-.34 1.064-.63l.392.798c-.308.299-.7.532-1.176.7a4.565 4.565 0 0 1-1.484.238Zm6.985 0c-.69 0-1.218-.196-1.582-.588-.364-.401-.546-1.003-.546-1.806v-3.878h-1.372v-.882h1.372v-1.918l1.134-.322v2.24h2.016v.882h-2.016v3.752c0 .56.094.962.28 1.204.196.234.486.35.868.35.178 0 .336-.014.476-.042.14-.037.266-.079.378-.126v.952c-.13.056-.289.098-.476.126a2.524 2.524 0 0 1-.532.056Zm4.881 0c-.831 0-1.461-.228-1.89-.686-.42-.457-.63-1.157-.63-2.1v-4.368h1.134v4.34c0 .644.131 1.12.392 1.428.261.299.667.448 1.218.448.616 0 1.111-.2 1.484-.602.373-.401.56-.938.56-1.61v-4.004h1.134v7.028h-1.106v-1.582h.182c-.196.542-.513.962-.952 1.26-.429.299-.938.448-1.526.448Zm5.574-.126v-5.334c0-.28-.009-.564-.028-.854a11.722 11.722 0 0 0-.056-.84h1.092l.14 1.708-.196.014c.093-.42.257-.765.49-1.036.233-.27.509-.471.826-.602.317-.14.649-.21.994-.21.14 0 .261.005.364.014.112.01.215.033.308.07l-.014 1.008a1.718 1.718 0 0 0-.392-.084 2.493 2.493 0 0 0-.392-.028c-.411 0-.77.098-1.078.294a1.975 1.975 0 0 0-.686.756 2.223 2.223 0 0 0-.224.98v4.144h-1.148Zm-165.004 18.126c-.625 0-1.171-.144-1.638-.434a2.995 2.995 0 0 1-1.092-1.26c-.252-.541-.378-1.19-.378-1.946 0-.765.126-1.418.378-1.96.261-.541.625-.956 1.092-1.246.467-.289 1.013-.434 1.638-.434.635 0 1.181.164 1.638.49.467.318.775.752.924 1.302h-.168l.154-1.666h1.092l-.084.826c-.019.271-.028.537-.028.798v5.404h-1.134v-1.652h.154a2.226 2.226 0 0 1-.924 1.302c-.467.318-1.008.476-1.624.476Zm.224-.924c.672 0 1.204-.228 1.596-.686.392-.466.588-1.143.588-2.03 0-.896-.196-1.572-.588-2.03-.392-.466-.924-.7-1.596-.7-.663 0-1.195.234-1.596.7-.392.458-.588 1.134-.588 2.03 0 .887.196 1.564.588 2.03.401.458.933.686 1.596.686Zm8.157.924c-.616 0-1.158-.144-1.624-.434a2.995 2.995 0 0 1-1.092-1.26c-.252-.541-.378-1.19-.378-1.946 0-.765.126-1.418.378-1.96.261-.541.625-.956 1.092-1.246.466-.289 1.008-.434 1.624-.434.634 0 1.18.159 1.638.476.466.318.779.747.938 1.288h-.168v-4.914h1.134v10.304h-1.12v-1.68h.154a2.298 2.298 0 0 1-.924 1.33c-.467.318-1.018.476-1.652.476Zm.238-.924c.662 0 1.194-.228 1.596-.686.401-.466.602-1.143.602-2.03 0-.896-.201-1.572-.602-2.03-.402-.466-.934-.7-1.596-.7-.663 0-1.195.234-1.596.7-.392.458-.588 1.134-.588 2.03 0 .887.196 1.564.588 2.03.401.458.933.686 1.596.686Zm5.496.798v-7.028h1.134v7.028h-1.134Zm-.14-8.624v-1.274h1.4v1.274h-1.4Zm3.476 11.648v-8.428c0-.261-.014-.527-.042-.798-.019-.28-.042-.555-.07-.826h1.092l.154 1.666h-.168c.149-.55.453-.984.91-1.302.457-.326 1.003-.49 1.638-.49s1.181.145 1.638.434c.467.29.831.705 1.092 1.246.261.542.392 1.195.392 1.96 0 .756-.131 1.405-.392 1.946a2.906 2.906 0 0 1-1.078 1.26c-.467.29-1.017.434-1.652.434-.625 0-1.167-.158-1.624-.476a2.249 2.249 0 0 1-.91-1.302h.154v4.676h-1.134Zm3.29-3.822c.672 0 1.204-.228 1.596-.686.401-.466.602-1.143.602-2.03 0-.896-.201-1.572-.602-2.03-.392-.466-.924-.7-1.596-.7-.663 0-1.195.234-1.596.7-.392.458-.588 1.134-.588 2.03 0 .887.196 1.564.588 2.03.401.458.933.686 1.596.686Zm5.105.798v-7.028h1.134v7.028h-1.134Zm-.14-8.624v-1.274h1.4v1.274h-1.4Zm5.813 8.75c-.56 0-1.082-.074-1.568-.224-.485-.158-.886-.378-1.204-.658l.392-.798c.346.271.719.472 1.12.602.411.131.836.196 1.274.196.56 0 .98-.098 1.26-.294a.974.974 0 0 0 .434-.84c0-.27-.093-.485-.28-.644-.177-.168-.471-.298-.882-.392l-1.302-.266c-.597-.13-1.045-.35-1.344-.658-.298-.317-.448-.718-.448-1.204 0-.41.108-.77.322-1.078.215-.317.528-.564.938-.742.411-.186.892-.28 1.442-.28.514 0 .985.08 1.414.238.439.15.803.369 1.092.658l-.406.784a2.69 2.69 0 0 0-.966-.602 2.982 2.982 0 0 0-1.106-.21c-.55 0-.966.112-1.246.336-.27.215-.406.5-.406.854 0 .271.084.495.252.672.178.168.448.294.812.378l1.302.266c.635.14 1.106.36 1.414.658.318.29.476.682.476 1.176 0 .42-.116.789-.35 1.106-.233.308-.56.546-.98.714-.41.168-.896.252-1.456.252Zm7.562 0c-.691 0-1.293-.149-1.806-.448a3.043 3.043 0 0 1-1.176-1.274c-.271-.55-.406-1.204-.406-1.96 0-.765.14-1.414.42-1.946.28-.541.672-.952 1.176-1.232.513-.28 1.11-.42 1.792-.42.448 0 .882.08 1.302.238.429.159.784.383 1.064.672l-.406.812a2.784 2.784 0 0 0-.924-.602 2.604 2.604 0 0 0-.966-.196c-.728 0-1.293.229-1.694.686-.402.458-.602 1.125-.602 2.002 0 .868.2 1.54.602 2.016.401.476.966.714 1.694.714.308 0 .625-.06.952-.182.336-.121.648-.322.938-.602l.406.798c-.29.299-.649.528-1.078.686a3.69 3.69 0 0 1-1.288.238Zm3.977-.126v-7.028h1.134v7.028h-1.134Zm-.14-8.624v-1.274h1.4v1.274h-1.4Zm3.476 8.624v-5.404c0-.261-.014-.527-.042-.798a21.36 21.36 0 0 0-.07-.826h1.092l.14 1.54h-.168c.206-.541.532-.952.98-1.232.458-.289.985-.434 1.582-.434.831 0 1.456.224 1.876.672.43.439.644 1.134.644 2.086v4.396h-1.134v-4.326c0-.662-.135-1.143-.406-1.442-.261-.308-.672-.462-1.232-.462-.653 0-1.171.201-1.554.602-.382.402-.574.938-.574 1.61v4.018h-1.134Zm11.297 3.122a5.977 5.977 0 0 1-1.68-.224 4.28 4.28 0 0 1-1.386-.686l.336-.854c.29.206.574.369.854.49.28.122.57.21.868.266.299.066.616.098.952.098.691 0 1.214-.182 1.568-.546.355-.364.532-.882.532-1.554v-2.058h.14c-.149.551-.457.99-.924 1.316-.466.318-1.012.476-1.638.476-.644 0-1.204-.14-1.68-.42a2.952 2.952 0 0 1-1.092-1.218c-.252-.532-.378-1.157-.378-1.876 0-.709.126-1.325.378-1.848a2.865 2.865 0 0 1 1.092-1.204c.476-.289 1.036-.434 1.68-.434.635 0 1.181.159 1.638.476.467.318.775.756.924 1.316l-.14-.14.126-1.526h1.106a12.213 12.213 0 0 0-.112 1.624v5.362c0 1.046-.27 1.834-.812 2.366-.532.532-1.316.798-2.352.798Zm-.168-4.2c.682 0 1.218-.224 1.61-.672.392-.457.588-1.096.588-1.918 0-.821-.196-1.456-.588-1.904-.392-.448-.928-.672-1.61-.672-.672 0-1.208.224-1.61.672-.401.448-.602 1.083-.602 1.904 0 .822.201 1.461.602 1.918.402.448.938.672 1.61.672Zm12.282 1.204c-1.101 0-1.969-.317-2.604-.952-.634-.644-.952-1.535-.952-2.674 0-.737.14-1.376.42-1.918.28-.55.672-.975 1.176-1.274.504-.308 1.083-.462 1.736-.462.644 0 1.186.136 1.624.406.439.271.775.658 1.008 1.162.234.495.35 1.083.35 1.764v.42h-5.446v-.714h4.704l-.238.182c0-.746-.168-1.33-.504-1.75-.336-.42-.835-.63-1.498-.63-.7 0-1.246.248-1.638.742-.392.486-.588 1.144-.588 1.974v.126c0 .878.215 1.545.644 2.002.439.448 1.05.672 1.834.672.42 0 .812-.06 1.176-.182.374-.13.728-.34 1.064-.63l.392.798c-.308.299-.7.532-1.176.7a4.565 4.565 0 0 1-1.484.238Zm4.494-.126v-10.304h1.134v10.304h-1.134Zm3.336 0v-7.028h1.134v7.028h-1.134Zm-.14-8.624v-1.274h1.4v1.274h-1.4Zm5.968 8.75c-.691 0-1.218-.196-1.582-.588-.364-.401-.546-1.003-.546-1.806v-3.878h-1.372v-.882h1.372v-1.918l1.134-.322v2.24h2.016v.882h-2.016v3.752c0 .56.093.962.28 1.204.196.234.485.35.868.35.177 0 .336-.014.476-.042.14-.037.266-.079.378-.126v.952c-.131.056-.29.098-.476.126a2.538 2.538 0 0 1-.532.056Zm2.369-.126v-1.428h1.428v1.428h-1.428Z"/>
</svg>
