<svg xmlns="http://www.w3.org/2000/svg" width="375" height="79" fill="none" viewBox="0 0 375 79">
  <path fill="#333" d="M0 16C0 7.163 7.163 0 16 0h343c8.837 0 16 7.163 16 16v63H0V16Z"/>
  <path fill="#609FFF" d="m51.328 36.874-.001-.002-10.2-10.198A2.287 2.287 0 0 0 39.5 26a2.29 2.29 0 0 0-1.628.674L27.68 36.867l-.01.01a2.304 2.304 0 0 0 .004 3.25 2.289 2.289 0 0 0 1.598.675h.407v7.505A2.697 2.697 0 0 0 32.372 51h3.99a.733.733 0 0 0 .732-.732v-5.884a1.23 1.23 0 0 1 1.23-1.23h2.353a1.23 1.23 0 0 1 1.229 1.23v5.884c0 .404.328.732.732.732h3.99a2.697 2.697 0 0 0 2.695-2.693v-7.505h.377a2.305 2.305 0 0 0 1.629-3.928Z"/>
  <path fill="#828282" d="M118.714 29.571A1.57 1.57 0 0 1 120.286 28h3.143A1.573 1.573 0 0 1 125 29.571V48.43h.786a.785.785 0 0 1 0 1.571h-23.572a.785.785 0 0 1 0-1.571H103v-4.715a1.574 1.574 0 0 1 1.571-1.571h3.143a1.57 1.57 0 0 1 1.572 1.571v4.715h1.571v-11a1.574 1.574 0 0 1 1.572-1.572h3.142a1.574 1.574 0 0 1 1.572 1.572v11h1.571V29.57Zm1.572 18.858h3.143V29.57h-3.143v18.86Zm-4.715 0v-11h-3.142v11h3.142Zm-7.857 0v-4.715h-3.143v4.715h3.143ZM188 27c-6.627 0-12 5.373-12 12s5.373 12 12 12 12-5.373 12-12-5.373-12-12-12Zm0 21.964c-5.502 0-9.964-4.462-9.964-9.964 0-5.502 4.462-9.964 9.964-9.964 5.502 0 9.964 4.462 9.964 9.964 0 5.502-4.462 9.964-9.964 9.964Zm5.314-15.752a.857.857 0 0 0-.656.013l-7.259 3.177-3.174 7.259a.859.859 0 0 0 1.13 1.13l7.259-3.177 3.174-7.259a.845.845 0 0 0 .007-.672.862.862 0 0 0-.481-.471Zm-3.578 6.388.702.702-1.136 1.136-.702-.702-4.136 1.81 1.808-4.135-.683-.686 1.136-1.136.683.683 4.138-1.808-1.81 4.136Zm-3.011-3.01-1.136 1.135.683.686 2.328 2.325.702.702 1.136-1.136-.702-.702-2.325-2.328-.686-.683ZM265.75 40a.748.748 0 0 0-.75.75.749.749 0 0 0 .75.75h2.5a.748.748 0 0 0 .75-.75.749.749 0 0 0-.75-.75h-2.5ZM250 29.75a2.753 2.753 0 0 1 2.75-2.75h13.5a2.752 2.752 0 0 1 2.75 2.75v1.258a3.752 3.752 0 0 1 3.5 3.742v10.5a3.75 3.75 0 0 1-3.75 3.75h-14.996a3.752 3.752 0 0 1-3.75-3.75v-10.5H250V30h.011a2.979 2.979 0 0 1-.011-.25Zm18.75 2.75h-17.246v12.75a2.25 2.25 0 0 0 2.25 2.25h14.996a2.25 2.25 0 0 0 2.25-2.25v-10.5a2.25 2.25 0 0 0-2.25-2.25Zm-1.25-2.75c0-.69-.56-1.25-1.25-1.25h-13.5a1.25 1.25 0 0 0 0 2.5h14.75v-1.25Z"/>
  <g clip-path="url(#a)">
    <path fill="#828282" d="M342.925 41.575a10.464 10.464 0 0 0-3.99-2.502 6.07 6.07 0 0 0 2.635-5.003A6.077 6.077 0 0 0 335.5 28a6.077 6.077 0 0 0-6.07 6.07 6.07 6.07 0 0 0 2.635 5.003 10.464 10.464 0 0 0-3.99 2.502A10.432 10.432 0 0 0 325 49h1.641c0-4.885 3.974-8.86 8.859-8.86s8.859 3.975 8.859 8.86H346c0-2.805-1.092-5.441-3.075-7.425ZM335.5 38.5a4.435 4.435 0 0 1-4.43-4.43 4.435 4.435 0 0 1 4.43-4.43 4.435 4.435 0 0 1 4.43 4.43 4.435 4.435 0 0 1-4.43 4.43Z"/>
  </g>
  <defs>
    <clipPath id="a">
      <path fill="#fff" d="M0 0h21v21H0z" transform="translate(325 28)"/>
    </clipPath>
  </defs>
</svg>
