<svg xmlns="http://www.w3.org/2000/svg" width="29" height="29" fill="none" viewBox="0 0 29 29">
  <g clip-path="url(#a)">
    <path fill="#828282" d="M21.925 17.575a10.46 10.46 0 0 0-3.99-2.502 6.068 6.068 0 0 0 2.635-5.003A6.077 6.077 0 0 0 14.5 4a6.077 6.077 0 0 0-6.07 6.07 6.068 6.068 0 0 0 2.635 5.003 10.46 10.46 0 0 0-3.99 2.502A10.431 10.431 0 0 0 4 25h1.64c0-4.885 3.975-8.86 8.86-8.86s8.86 3.975 8.86 8.86H25c0-2.805-1.092-5.441-3.075-7.425ZM14.5 14.5a4.435 4.435 0 0 1-4.43-4.43 4.435 4.435 0 0 1 4.43-4.43 4.435 4.435 0 0 1 4.43 4.43 4.435 4.435 0 0 1-4.43 4.43Z"/>
  </g>
  <defs>
    <clipPath id="a">
      <path fill="#fff" d="M0 0h21v21H0z" transform="translate(4 4)"/>
    </clipPath>
  </defs>
</svg>
